<?xml version="1.0" encoding="utf-8"?>
<!-- Generator: Adobe Illustrator 27.5.0, SVG Export Plug-In . SVG Version: 6.00 Build 0)  -->
<svg version="1.1" xmlns="http://www.w3.org/2000/svg" xmlns:xlink="http://www.w3.org/1999/xlink" x="0px" y="0px"
	 viewBox="0 0 750 500" style="enable-background:new 0 0 750 500;" xml:space="preserve">
<g id="BACKGROUND">
	<rect style="fill:#ECE8E4;" width="750" height="500"/>
</g>
<g id="OBJECTS">
	<g>
		<defs>
			<rect id="SVGID_1_" width="750" height="500"/>
		</defs>
		<clipPath id="SVGID_00000108283484887740728200000012008470905463941254_">
			<use xlink:href="#SVGID_1_"  style="overflow:visible;"/>
		</clipPath>
		<g style="clip-path:url(#SVGID_00000108283484887740728200000012008470905463941254_);">
			<g>
				<polygon style="fill:#E1D6D2;" points="609,60 609,81.873 590.057,70.938 571.113,60 590.057,49.062 609,38.125 				"/>
				<polygon style="fill:#E1D6D2;" points="560.723,60 560.723,81.873 541.778,70.938 522.836,60 541.778,49.062 560.723,38.125 
									"/>
				<polygon style="fill:#E1D6D2;" points="512.443,60 512.443,81.873 493.5,70.938 474.557,60 493.5,49.062 512.443,38.125 				"/>
				<polygon style="fill:#E1D6D2;" points="464.165,60 464.165,81.873 445.221,70.938 426.277,60 445.221,49.062 464.165,38.125 
									"/>
				<polygon style="fill:#E1D6D2;" points="415.888,60 415.888,81.873 396.943,70.938 378,60 396.943,49.062 415.888,38.125 				"/>
			</g>
			<g>
				<polygon style="fill:#E1D6D2;" points="0,421.999 0,400.126 18.944,411.061 37.887,421.999 18.944,432.938 0,443.874 				"/>
				<polygon style="fill:#E1D6D2;" points="48.278,421.999 48.278,400.126 67.222,411.061 86.165,421.999 67.222,432.938 
					48.278,443.874 				"/>
				<polygon style="fill:#E1D6D2;" points="96.556,421.999 96.556,400.126 115.5,411.061 134.444,421.999 115.5,432.938 
					96.556,443.874 				"/>
				<polygon style="fill:#E1D6D2;" points="144.835,421.999 144.835,400.126 163.779,411.061 182.722,421.999 163.779,432.938 
					144.835,443.874 				"/>
				<polygon style="fill:#E1D6D2;" points="193.112,421.999 193.112,400.126 212.056,411.061 231,421.999 212.056,432.938 
					193.112,443.874 				"/>
			</g>
		</g>
		
			<rect x="102" y="112.75" style="clip-path:url(#SVGID_00000108283484887740728200000012008470905463941254_);fill:#9F8883;" width="59.5" height="59.5"/>
		<g style="clip-path:url(#SVGID_00000108283484887740728200000012008470905463941254_);">
			<rect x="-24" y="-18" style="fill:#A2ADB1;" width="119" height="119"/>
			<rect x="630" y="299" style="fill:#E3C1B8;" width="147" height="147"/>
			<rect x="561" y="461.75" style="fill:#9F8883;" width="59.5" height="59.5"/>
			<rect x="113" y="60.25" style="fill:#E3C1B8;" width="28.5" height="28.5"/>
			<rect x="634" y="461.25" style="fill:#E3C1B8;" width="28.5" height="28.5"/>
			<rect x="708" y="258.25" style="fill:#293D43;" width="28.5" height="28.5"/>
			<rect x="13" y="116.25" style="fill:#D7713C;" width="28.5" height="28.5"/>
		</g>
		<path style="clip-path:url(#SVGID_00000108283484887740728200000012008470905463941254_);fill:#E1D6D2;" d="M4,158
			c-52.467,0-95,42.533-95,95c0,52.467,42.533,95,95,95s95-42.533,95-95C99,200.533,56.467,158,4,158z M4,298
			c-24.853,0-45-20.147-45-45c0-24.853,20.147-45,45-45s45,20.147,45,45C49,277.853,28.853,298,4,298z"/>
		<path style="clip-path:url(#SVGID_00000108283484887740728200000012008470905463941254_);fill:#D7713C;" d="M750-124
			c-74.006,0-134,59.994-134,134c0,74.006,59.994,134,134,134S884,84.006,884,10C884-64.006,824.006-124,750-124z M750,119
			c-60.201,0-109-48.799-109-109c0-60.199,48.799-109,109-109c60.201,0,109,48.801,109,109C859,70.201,810.201,119,750,119z"/>
		<path style="clip-path:url(#SVGID_00000108283484887740728200000012008470905463941254_);fill:#293D43;" d="M607-201
			c-74.006,0-134,59.994-134,134c0,74.006,59.994,134,134,134S741,7.006,741-67C741-141.006,681.006-201,607-201z M607,42
			C546.799,42,498-6.799,498-67c0-60.199,48.799-109,109-109c60.201,0,109,48.801,109,109C716-6.799,667.201,42,607,42z"/>
		<path style="clip-path:url(#SVGID_00000108283484887740728200000012008470905463941254_);fill:#A2ADB1;" d="M451.5,415.5
			c-49.43,0-89.5,40.07-89.5,89.5s40.07,89.5,89.5,89.5S541,554.43,541,505S500.93,415.5,451.5,415.5z M451.5,550.444
			c-25.1,0-45.443-20.346-45.443-45.444c0-25.098,20.344-45.444,45.443-45.444c25.1,0,45.443,20.347,45.443,45.444
			C496.943,530.099,476.6,550.444,451.5,550.444z"/>
		<g style="clip-path:url(#SVGID_00000108283484887740728200000012008470905463941254_);">
			
				<rect x="144.09" y="18.917" transform="matrix(0.7071 -0.7072 0.7072 0.7071 27.7625 110.0182)" style="fill:#293D43;" width="5.165" height="5.165"/>
			
				<rect x="158.996" y="18.917" transform="matrix(0.7071 -0.7071 0.7071 0.7071 32.121 120.5484)" style="fill:#293D43;" width="5.165" height="5.165"/>
			
				<rect x="173.902" y="18.917" transform="matrix(0.7071 -0.7072 0.7072 0.7071 36.4957 131.0999)" style="fill:#293D43;" width="5.165" height="5.165"/>
			
				<rect x="188.808" y="18.917" transform="matrix(0.7071 -0.7071 0.7071 0.7071 40.8524 141.6284)" style="fill:#293D43;" width="5.165" height="5.165"/>
			
				<rect x="203.714" y="18.917" transform="matrix(0.7071 -0.7071 0.7071 0.7071 45.22 152.1708)" style="fill:#293D43;" width="5.165" height="5.165"/>
			
				<rect x="218.62" y="18.917" transform="matrix(0.7071 -0.7071 0.7071 0.7071 49.5839 162.7084)" style="fill:#293D43;" width="5.165" height="5.165"/>
			
				<rect x="233.526" y="18.917" transform="matrix(0.7071 -0.7071 0.7071 0.7071 53.9518 173.2511)" style="fill:#293D43;" width="5.165" height="5.165"/>
			
				<rect x="248.432" y="18.917" transform="matrix(0.7071 -0.7071 0.7071 0.7071 58.3154 183.7886)" style="fill:#293D43;" width="5.165" height="5.165"/>
			
				<rect x="263.338" y="18.917" transform="matrix(0.7071 -0.7071 0.7071 0.7071 62.6811 194.3286)" style="fill:#293D43;" width="5.165" height="5.165"/>
			
				<rect x="278.244" y="18.917" transform="matrix(0.7071 -0.7071 0.7071 0.7071 67.0594 204.8834)" style="fill:#293D43;" width="5.165" height="5.165"/>
		</g>
		<g style="clip-path:url(#SVGID_00000108283484887740728200000012008470905463941254_);">
			
				<rect x="166.329" y="30.917" transform="matrix(0.7071 -0.7071 0.7071 0.7071 25.7902 129.2581)" style="fill:#A2ADB1;" width="5.165" height="5.165"/>
			
				<rect x="181.235" y="30.917" transform="matrix(0.7071 -0.7071 0.7071 0.7071 30.1508 139.7904)" style="fill:#A2ADB1;" width="5.165" height="5.165"/>
			
				<rect x="196.141" y="30.917" transform="matrix(0.7071 -0.7071 0.7071 0.7071 34.523 150.3396)" style="fill:#A2ADB1;" width="5.165" height="5.165"/>
			
				<rect x="211.047" y="30.917" transform="matrix(0.7071 -0.7071 0.7071 0.7071 38.8825 160.8707)" style="fill:#A2ADB1;" width="5.165" height="5.165"/>
			
				<rect x="225.953" y="30.917" transform="matrix(0.7071 -0.7071 0.7071 0.7071 43.2465 171.4084)" style="fill:#A2ADB1;" width="5.165" height="5.165"/>
			
				<rect x="240.859" y="30.917" transform="matrix(0.7071 -0.7071 0.7071 0.7071 47.6122 181.9483)" style="fill:#A2ADB1;" width="5.165" height="5.165"/>
			
				<rect x="255.765" y="30.917" transform="matrix(0.7071 -0.7071 0.7071 0.7071 51.9801 192.4912)" style="fill:#A2ADB1;" width="5.165" height="5.165"/>
			
				<rect x="270.671" y="30.917" transform="matrix(0.7071 -0.7071 0.7071 0.7071 56.3438 203.0287)" style="fill:#A2ADB1;" width="5.165" height="5.165"/>
			
				<rect x="285.577" y="30.917" transform="matrix(0.7071 -0.7071 0.7071 0.7071 60.7118 213.5715)" style="fill:#A2ADB1;" width="5.165" height="5.165"/>
			
				<rect x="300.484" y="30.917" transform="matrix(0.7071 -0.7071 0.7071 0.7071 65.0884 224.1251)" style="fill:#A2ADB1;" width="5.165" height="5.165"/>
		</g>
		<g style="clip-path:url(#SVGID_00000108283484887740728200000012008470905463941254_);">
			
				<rect x="731.417" y="226.417" transform="matrix(0.7071 -0.7071 0.7071 0.7071 53.0554 586.0875)" style="fill:#293D43;" width="5.165" height="5.165"/>
			
				<rect x="716.511" y="226.417" transform="matrix(0.7071 -0.7071 0.7071 0.7071 48.6855 575.5394)" style="fill:#293D43;" width="5.165" height="5.165"/>
			
				<rect x="701.605" y="226.417" transform="matrix(0.7071 -0.7071 0.7071 0.7071 44.3243 565.0083)" style="fill:#293D43;" width="5.165" height="5.165"/>
			
				<rect x="686.699" y="226.417" transform="matrix(0.7071 -0.7071 0.7071 0.7071 39.9539 554.4591)" style="fill:#293D43;" width="5.165" height="5.165"/>
			
				<rect x="671.792" y="226.417" transform="matrix(0.7071 -0.7071 0.7071 0.7071 35.5918 543.9265)" style="fill:#293D43;" width="5.165" height="5.165"/>
			
				<rect x="656.887" y="226.417" transform="matrix(0.7071 -0.7071 0.7071 0.7071 31.2268 533.3881)" style="fill:#293D43;" width="5.165" height="5.165"/>
			
				<rect x="641.981" y="226.417" transform="matrix(0.7071 -0.7071 0.7071 0.7071 26.8568 522.8393)" style="fill:#293D43;" width="5.165" height="5.165"/>
			
				<rect x="627.075" y="226.417" transform="matrix(0.7071 -0.7071 0.7071 0.7071 22.4949 512.3074)" style="fill:#293D43;" width="5.165" height="5.165"/>
			
				<rect x="612.168" y="226.417" transform="matrix(0.7071 -0.7071 0.7071 0.7071 18.1247 501.758)" style="fill:#293D43;" width="5.165" height="5.165"/>
			
				<rect x="597.262" y="226.417" transform="matrix(0.7071 -0.7071 0.7071 0.7071 13.763 491.2268)" style="fill:#293D43;" width="5.165" height="5.165"/>
		</g>
		<g style="clip-path:url(#SVGID_00000108283484887740728200000012008470905463941254_);">
			
				<rect x="709.178" y="214.417" transform="matrix(0.707 -0.7072 0.7072 0.707 55.0707 566.9293)" style="fill:#E3C1B8;" width="5.165" height="5.165"/>
			
				<rect x="694.272" y="214.417" transform="matrix(0.707 -0.7072 0.7072 0.707 50.7035 556.3878)" style="fill:#E3C1B8;" width="5.165" height="5.166"/>
			
				<rect x="679.366" y="214.417" transform="matrix(0.7071 -0.7071 0.7071 0.7071 46.2958 545.7681)" style="fill:#E3C1B8;" width="5.165" height="5.165"/>
			
				<rect x="664.459" y="214.417" transform="matrix(0.7071 -0.7071 0.7071 0.7071 41.9249 535.218)" style="fill:#E3C1B8;" width="5.165" height="5.165"/>
			
				<rect x="649.553" y="214.417" transform="matrix(0.7071 -0.7071 0.7071 0.7071 37.564 524.6874)" style="fill:#E3C1B8;" width="5.165" height="5.165"/>
			
				<rect x="634.648" y="214.417" transform="matrix(0.7071 -0.7071 0.7071 0.7071 33.1942 514.1395)" style="fill:#E3C1B8;" width="5.165" height="5.165"/>
			
				<rect x="619.742" y="214.417" transform="matrix(0.7071 -0.7071 0.7071 0.7071 28.8324 503.6075)" style="fill:#E3C1B8;" width="5.165" height="5.165"/>
			
				<rect x="604.835" y="214.417" transform="matrix(0.7071 -0.7071 0.7071 0.7071 24.4622 493.0583)" style="fill:#E3C1B8;" width="5.165" height="5.165"/>
			
				<rect x="589.929" y="214.417" transform="matrix(0.7071 -0.7071 0.7071 0.7071 20.1005 482.5269)" style="fill:#E3C1B8;" width="5.165" height="5.165"/>
			
				<rect x="575.023" y="214.417" transform="matrix(0.7071 -0.7071 0.7071 0.7071 15.7311 471.9789)" style="fill:#E3C1B8;" width="5.165" height="5.165"/>
		</g>
		<g style="clip-path:url(#SVGID_00000108283484887740728200000012008470905463941254_);">
			
				<rect x="174.765" y="473.417" transform="matrix(0.7071 -0.7071 0.7071 0.7071 -284.636 264.8146)" style="fill:#293D43;" width="5.165" height="5.165"/>
			
				<rect x="159.859" y="473.417" transform="matrix(0.7071 -0.7071 0.7071 0.7071 -289.0048 254.2806)" style="fill:#293D43;" width="5.165" height="5.165"/>
			
				<rect x="144.953" y="473.417" transform="matrix(0.7071 -0.7071 0.7071 0.7071 -293.3676 243.7343)" style="fill:#293D43;" width="5.165" height="5.165"/>
			
				<rect x="130.046" y="473.417" transform="matrix(0.7071 -0.7071 0.7071 0.7071 -297.735 233.197)" style="fill:#293D43;" width="5.165" height="5.165"/>
			
				<rect x="115.14" y="473.417" transform="matrix(0.7071 -0.7071 0.7071 0.7071 -302.1006 222.6562)" style="fill:#293D43;" width="5.165" height="5.165"/>
			
				<rect x="100.235" y="473.417" transform="matrix(0.7071 -0.7071 0.7071 0.7071 -306.4647 212.1144)" style="fill:#293D43;" width="5.165" height="5.165"/>
			
				<rect x="85.329" y="473.417" transform="matrix(0.7071 -0.7071 0.7071 0.7071 -310.8343 201.5797)" style="fill:#293D43;" width="5.165" height="5.165"/>
			
				<rect x="70.422" y="473.417" transform="matrix(0.7071 -0.7071 0.7071 0.7071 -315.1963 191.0341)" style="fill:#293D43;" width="5.165" height="5.165"/>
			
				<rect x="55.516" y="473.417" transform="matrix(0.7071 -0.7071 0.7071 0.7071 -319.5661 180.4991)" style="fill:#293D43;" width="5.165" height="5.165"/>
			
				<rect x="40.61" y="473.417" transform="matrix(0.7071 -0.7071 0.7071 0.7071 -323.9279 169.9538)" style="fill:#293D43;" width="5.165" height="5.165"/>
		</g>
		<g style="clip-path:url(#SVGID_00000108283484887740728200000012008470905463941254_);">
			
				<rect x="152.525" y="461.417" transform="matrix(0.707 -0.7072 0.7072 0.707 -282.6974 245.6402)" style="fill:#9F8883;" width="5.165" height="5.165"/>
			
				<rect x="137.619" y="461.417" transform="matrix(0.707 -0.7072 0.7072 0.707 -287.0616 235.0928)" style="fill:#9F8883;" width="5.165" height="5.165"/>
			
				<rect x="122.713" y="461.417" transform="matrix(0.7071 -0.7071 0.7071 0.7071 -291.3976 224.4973)" style="fill:#9F8883;" width="5.165" height="5.165"/>
			
				<rect x="107.807" y="461.417" transform="matrix(0.7071 -0.7071 0.7071 0.7071 -295.7652 213.9597)" style="fill:#9F8883;" width="5.165" height="5.165"/>
			
				<rect x="92.901" y="461.417" transform="matrix(0.7071 -0.7071 0.7071 0.7071 -300.1311 203.4194)" style="fill:#9F8883;" width="5.165" height="5.165"/>
			
				<rect x="77.996" y="461.417" transform="matrix(0.7071 -0.7071 0.7071 0.7071 -304.4968 192.8798)" style="fill:#9F8883;" width="5.165" height="5.165"/>
			
				<rect x="63.089" y="461.417" transform="matrix(0.7071 -0.7071 0.7071 0.7071 -308.8589 182.3344)" style="fill:#9F8883;" width="5.165" height="5.165"/>
			
				<rect x="48.183" y="461.417" transform="matrix(0.7071 -0.7071 0.7071 0.7071 -313.2286 171.7992)" style="fill:#9F8883;" width="5.165" height="5.165"/>
			
				<rect x="33.277" y="461.417" transform="matrix(0.7071 -0.7071 0.7071 0.7071 -317.5904 161.254)" style="fill:#9F8883;" width="5.165" height="5.165"/>
			
				<rect x="18.371" y="461.417" transform="matrix(0.7071 -0.7071 0.7071 0.7071 -321.9605 150.7186)" style="fill:#9F8883;" width="5.165" height="5.165"/>
		</g>
		<g style="clip-path:url(#SVGID_00000108283484887740728200000012008470905463941254_);">
			<circle style="fill:#D7713C;" cx="45" cy="341" r="33"/>
			<circle style="fill:#E1D6D2;" cx="498" cy="431" r="19"/>
			<circle style="fill:#E3C1B8;" cx="713.666" cy="147.667" r="26"/>
		</g>
		<g style="clip-path:url(#SVGID_00000108283484887740728200000012008470905463941254_);">
			<path style="fill:#9F8883;" d="M604.5,272.75v53.5H658v-53.5H604.5z M645.75,314h-29v-29h29V314z"/>
			<g>
				<path style="fill:#E1D6D2;" d="M134.5,144.75v53.5H188v-53.5H134.5z M175.75,186h-29v-29h29V186z"/>
				<path style="fill:#293D43;" d="M101.5,203.25v28.5H130v-28.5H101.5z M123.474,225.225h-15.448v-15.449h15.448V225.225z"/>
				<path style="fill:#E1D6D2;" d="M591.5,419.25v28.5H620v-28.5H591.5z M613.475,441.225h-15.449v-15.449h15.449V441.225z"/>
				<path style="fill:#E3C1B8;" d="M716.869,47.5l32.881,32.88l32.881-32.88L749.75,14.62L716.869,47.5z M767.574,47.5
					L749.75,65.324L731.926,47.5l17.824-17.824L767.574,47.5z"/>
				<path style="fill:#E3C1B8;" d="M106.399,342.985l32.881,32.88l32.881-32.88l-32.881-32.88L106.399,342.985z M157.104,342.985
					L139.28,360.81l-17.824-17.824l17.824-17.824L157.104,342.985z"/>
				<path style="fill:#A2ADB1;" d="M619.694,140.215l23.882,23.881l23.881-23.881l-23.881-23.881L619.694,140.215z M656.521,140.215
					l-12.945,12.946l-12.946-12.946l12.946-12.946L656.521,140.215z"/>
			</g>
		</g>
		<g style="clip-path:url(#SVGID_00000108283484887740728200000012008470905463941254_);">
			<path style="fill:#D7713C;" d="M738.975,457c-0.53-17.762-15.084-32-32.975-32c-17.891,0-32.445,14.238-32.975,32H738.975z"/>
			<path style="fill:#293D43;" d="M142.975,47.527C142.187,21.147,120.572,0,94,0S45.812,21.147,45.025,47.527H142.975z"/>
			<path style="fill:#293D43;" d="M326.025,445.338c0.611,20.455,17.371,36.852,37.975,36.852c20.603,0,37.365-16.397,37.975-36.852
				H326.025z"/>
			<path style="fill:#A2ADB1;" d="M552.025,374.646c0.401,13.453,11.424,24.236,24.975,24.236c13.55,0,24.573-10.783,24.975-24.236
				H552.025z"/>
			<path style="fill:#E1D6D2;" d="M174.025,50.646c0.401,13.453,11.424,24.236,24.975,24.236c13.55,0,24.573-10.783,24.975-24.236
				H174.025z"/>
		</g>
	</g>
</g>
</svg>
