<?xml version="1.0" encoding="utf-8"?>
<!-- Generator: Adobe Illustrator 27.5.0, SVG Export Plug-In . SVG Version: 6.00 Build 0)  -->
<svg version="1.1" xmlns="http://www.w3.org/2000/svg" xmlns:xlink="http://www.w3.org/1999/xlink" x="0px" y="0px"
	 viewBox="0 0 750 500" style="enable-background:new 0 0 750 500;" xml:space="preserve">
<g id="BACKGROUND">
	<rect style="fill:#E7F1F2;" width="750" height="500"/>
</g>
<g id="OBJECTS">
	<g style="opacity:0.4;">
		<defs>
			<rect id="SVGID_1_" style="opacity:0.4;" width="750" height="500"/>
		</defs>
		<clipPath id="SVGID_00000119834224510177760810000011105276062298305669_">
			<use xlink:href="#SVGID_1_"  style="overflow:visible;"/>
		</clipPath>
		<g style="clip-path:url(#SVGID_00000119834224510177760810000011105276062298305669_);">
			<circle style="fill:#FFFFFF;" cx="92.834" cy="100.34" r="138.192"/>
			
				<ellipse transform="matrix(0.7071 -0.7071 0.7071 0.7071 -244.4128 524.6519)" style="fill:#FFFFFF;" cx="511.104" cy="557.358" rx="138.192" ry="138.192"/>
			
				<ellipse transform="matrix(0.9866 -0.1632 0.1632 0.9866 -43.2166 53.6351)" style="fill:#FFFFFF;" cx="304.797" cy="289.819" rx="59.798" ry="59.798"/>
			
				<ellipse transform="matrix(0.3894 -0.9211 0.9211 0.3894 -239.8273 426.0988)" style="fill:#FFFFFF;" cx="201.452" cy="393.928" rx="28.276" ry="28.276"/>
			<circle style="fill:#FFFFFF;" cx="741.717" cy="294.132" r="28.276"/>
			<circle style="fill:#FFFFFF;" cx="40.979" cy="493.233" r="18.569"/>
			<circle style="fill:#FFFFFF;" cx="600.84" cy="100.34" r="18.569"/>
			<circle style="fill:#FFFFFF;" cx="522.252" cy="16.916" r="59.798"/>
		</g>
	</g>
	<g>
		<defs>
			<rect id="SVGID_00000000917639663901477210000017526176668448846479_" width="750" height="500"/>
		</defs>
		<clipPath id="SVGID_00000147903406760559882370000010753100102136845998_">
			<use xlink:href="#SVGID_00000000917639663901477210000017526176668448846479_"  style="overflow:visible;"/>
		</clipPath>
		<g style="clip-path:url(#SVGID_00000147903406760559882370000010753100102136845998_);">
			<path style="fill:#012840;" d="M40.979,342.678l51.854,89.814H-10.875L40.979,342.678 M40.979,312.678l-77.835,134.814h155.67
				L40.979,312.678L40.979,312.678z"/>
			<path style="fill:#012840;" d="M600.84,315.642l-29.817-51.644h59.634L600.84,315.642 M600.84,332.892l44.756-77.52h-89.512
				L600.84,332.892L600.84,332.892z"/>
			<path style="fill:#012840;" d="M504.171,173.082l-13.391,23.193h26.781L504.171,173.082L504.171,173.082z"/>
			<path style="fill:#77C0F2;" d="M434.583,441.751l-13.391,23.193h26.781L434.583,441.751L434.583,441.751z"/>
			<path style="fill:#012840;" d="M36.072,223.29l13.391-23.193H22.681L36.072,223.29L36.072,223.29z"/>
			<path style="fill:#EA5066;" d="M323.969,16.916L337.36-6.277h-26.781L323.969,16.916L323.969,16.916z"/>
			<path style="fill:#77C0F2;" d="M243.47-14.757l23.182,40.152h-46.363L243.47-14.757 M243.47-28.169l-34.796,60.27l69.593,0
				L243.47-28.169L243.47-28.169z"/>
			<path style="fill:#EA5066;" d="M511.104,511.802l-23.182-40.152h46.363L511.104,511.802 M511.104,525.214l34.797-60.269h-69.593
				L511.104,525.214L511.104,525.214z"/>
			<g>
				<polygon style="fill:#012840;" points="684.278,57.523 606.443,192.337 762.113,192.337 				"/>
				<polygon style="fill:#EA5066;" points="606.443,192.337 762.113,192.337 741.05,155.854 627.507,155.854 				"/>
			</g>
			<g>
				<polygon style="fill:#EA5066;" points="130.912,325.139 175.484,247.938 86.34,247.938 				"/>
				<polygon style="fill:#77C0F2;" points="97.191,266.732 164.634,266.732 175.484,247.938 86.34,247.938 				"/>
			</g>
		</g>
		<g style="clip-path:url(#SVGID_00000147903406760559882370000010753100102136845998_);">
			<rect x="594.153" y="415.3" style="fill:#012840;" width="7.732" height="7.732"/>
			<rect x="69.505" y="53.251" style="fill:#012840;" width="7.732" height="7.732"/>
			<rect x="216.422" y="462.342" style="fill:#012840;" width="7.732" height="7.732"/>
			<rect x="216.422" y="437.885" style="fill:#012840;" width="7.732" height="7.732"/>
			<rect x="92.834" y="331.59" style="fill:#FFFFFF;" width="7.732" height="7.732"/>
			<rect x="9.347" y="462.342" style="fill:#FFFFFF;" width="7.732" height="7.732"/>
			<rect x="536.475" y="198.078" style="fill:#FFFFFF;" width="7.732" height="7.732"/>
			<rect x="493.714" y="233.293" style="fill:#FFFFFF;" width="7.732" height="7.732"/>
			<rect x="700.451" y="471.395" style="fill:#FFFFFF;" width="7.732" height="7.732"/>
			<rect x="358.462" y="406.325" style="fill:#FFFFFF;" width="7.732" height="7.732"/>
			<rect x="243.47" y="156.395" style="fill:#FFFFFF;" width="7.732" height="7.732"/>
			<rect x="167.752" y="285.953" style="fill:#FFFFFF;" width="7.732" height="7.732"/>
			<rect x="289.894" y="437.885" style="fill:#EA5066;" width="7.732" height="7.732"/>
			<rect x="602.577" y="69.359" style="fill:#012840;" width="7.732" height="7.732"/>
			<rect x="552.218" y="-3.073" style="fill:#012840;" width="7.732" height="7.732"/>
			<rect x="421.192" y="69.359" style="fill:#77C0F2;" width="7.732" height="7.732"/>
			<rect x="421.192" y="85.809" style="fill:#EA5066;" width="7.732" height="7.732"/>
			<rect x="306.713" y="437.885" style="fill:#77C0F2;" width="7.732" height="7.732"/>
			<rect x="69.505" y="81.899" style="fill:#EA5066;" width="7.732" height="7.732"/>
			<rect x="84.458" y="81.899" style="fill:#77C0F2;" width="7.732" height="7.732"/>
			<rect x="639.639" y="415.3" style="fill:#EA5066;" width="7.732" height="7.732"/>
			<rect x="652.441" y="415.3" style="fill:#012840;" width="7.732" height="7.732"/>
		</g>
		<g style="clip-path:url(#SVGID_00000147903406760559882370000010753100102136845998_);">
			<g>
				<circle style="fill:#012840;" cx="94.36" cy="176.519" r="0.5"/>
				<circle style="fill:#012840;" cx="99.151" cy="176.519" r="0.5"/>
				<circle style="fill:#012840;" cx="103.941" cy="176.519" r="0.5"/>
				<circle style="fill:#012840;" cx="108.732" cy="176.519" r="0.5"/>
				<circle style="fill:#012840;" cx="94.36" cy="181.309" r="0.5"/>
				<circle style="fill:#012840;" cx="99.151" cy="181.309" r="0.5"/>
				<circle style="fill:#012840;" cx="103.941" cy="181.309" r="0.5"/>
				<circle style="fill:#012840;" cx="108.732" cy="181.309" r="0.5"/>
				<circle style="fill:#012840;" cx="94.36" cy="186.1" r="0.5"/>
				<circle style="fill:#012840;" cx="99.151" cy="186.1" r="0.5"/>
				<circle style="fill:#012840;" cx="103.941" cy="186.1" r="0.5"/>
				<circle style="fill:#012840;" cx="108.732" cy="186.1" r="0.5"/>
				<circle style="fill:#012840;" cx="94.36" cy="190.891" r="0.5"/>
				<circle style="fill:#012840;" cx="99.151" cy="190.891" r="0.5"/>
				<circle style="fill:#012840;" cx="103.941" cy="190.891" r="0.5"/>
				<circle style="fill:#012840;" cx="108.732" cy="190.891" r="0.5"/>
				<path style="fill:#012840;" d="M94.36,195.182c-0.276,0-0.5,0.224-0.5,0.5c0,0.276,0.224,0.5,0.5,0.5c0.276,0,0.5-0.224,0.5-0.5
					C94.86,195.406,94.636,195.182,94.36,195.182z"/>
				<path style="fill:#012840;" d="M99.151,195.182c-0.276,0-0.5,0.224-0.5,0.5c0,0.276,0.224,0.5,0.5,0.5
					c0.276,0,0.5-0.224,0.5-0.5C99.651,195.406,99.427,195.182,99.151,195.182z"/>
				<path style="fill:#012840;" d="M103.941,195.182c-0.276,0-0.5,0.224-0.5,0.5c0,0.276,0.224,0.5,0.5,0.5s0.5-0.224,0.5-0.5
					C104.442,195.406,104.218,195.182,103.941,195.182z"/>
				<path style="fill:#012840;" d="M108.732,195.182c-0.276,0-0.5,0.224-0.5,0.5c0,0.276,0.224,0.5,0.5,0.5s0.5-0.224,0.5-0.5
					C109.232,195.406,109.009,195.182,108.732,195.182z"/>
				<circle style="fill:#012840;" cx="94.36" cy="200.473" r="0.5"/>
				<circle style="fill:#012840;" cx="99.151" cy="200.473" r="0.5"/>
				<circle style="fill:#012840;" cx="103.941" cy="200.473" r="0.5"/>
				<circle style="fill:#012840;" cx="108.732" cy="200.473" r="0.5"/>
				<circle style="fill:#012840;" cx="94.36" cy="205.264" r="0.5"/>
				<circle style="fill:#012840;" cx="99.151" cy="205.264" r="0.5"/>
				<circle style="fill:#012840;" cx="103.941" cy="205.264" r="0.5"/>
				<circle style="fill:#012840;" cx="108.732" cy="205.264" r="0.5"/>
				<path style="fill:#012840;" d="M113.523,204.764c-0.276,0-0.5,0.224-0.5,0.5s0.224,0.5,0.5,0.5s0.5-0.224,0.5-0.5
					S113.799,204.764,113.523,204.764z"/>
				<path style="fill:#012840;" d="M118.314,204.764c-0.276,0-0.5,0.224-0.5,0.5s0.224,0.5,0.5,0.5c0.276,0,0.5-0.224,0.5-0.5
					S118.59,204.764,118.314,204.764z"/>
				<circle style="fill:#012840;" cx="123.105" cy="205.264" r="0.5"/>
				<circle style="fill:#012840;" cx="127.896" cy="205.264" r="0.5"/>
				<circle style="fill:#012840;" cx="132.687" cy="205.264" r="0.5"/>
				<path style="fill:#012840;" d="M137.478,205.764c0.276,0,0.5-0.224,0.5-0.5s-0.224-0.5-0.5-0.5c-0.276,0-0.5,0.224-0.5,0.5
					S137.202,205.764,137.478,205.764z"/>
				<path style="fill:#012840;" d="M94.36,209.555c-0.276,0-0.5,0.224-0.5,0.5c0,0.276,0.224,0.5,0.5,0.5c0.276,0,0.5-0.224,0.5-0.5
					C94.86,209.779,94.636,209.555,94.36,209.555z"/>
				<path style="fill:#012840;" d="M99.151,209.555c-0.276,0-0.5,0.224-0.5,0.5c0,0.276,0.224,0.5,0.5,0.5
					c0.276,0,0.5-0.224,0.5-0.5C99.651,209.779,99.427,209.555,99.151,209.555z"/>
				<path style="fill:#012840;" d="M103.941,209.555c-0.276,0-0.5,0.224-0.5,0.5c0,0.276,0.224,0.5,0.5,0.5s0.5-0.224,0.5-0.5
					C104.442,209.779,104.218,209.555,103.941,209.555z"/>
				<path style="fill:#012840;" d="M108.732,209.555c-0.276,0-0.5,0.224-0.5,0.5c0,0.276,0.224,0.5,0.5,0.5s0.5-0.224,0.5-0.5
					C109.232,209.779,109.009,209.555,108.732,209.555z"/>
				<path style="fill:#012840;" d="M113.523,209.555c-0.276,0-0.5,0.224-0.5,0.5c0,0.276,0.224,0.5,0.5,0.5s0.5-0.224,0.5-0.5
					C114.023,209.779,113.799,209.555,113.523,209.555z"/>
				<path style="fill:#012840;" d="M118.314,209.555c-0.276,0-0.5,0.224-0.5,0.5c0,0.276,0.224,0.5,0.5,0.5
					c0.276,0,0.5-0.224,0.5-0.5C118.814,209.779,118.59,209.555,118.314,209.555z"/>
				<path style="fill:#012840;" d="M123.105,209.555c-0.276,0-0.5,0.224-0.5,0.5c0,0.276,0.224,0.5,0.5,0.5
					c0.276,0,0.5-0.224,0.5-0.5C123.605,209.779,123.381,209.555,123.105,209.555z"/>
				<path style="fill:#012840;" d="M127.896,209.555c-0.276,0-0.5,0.224-0.5,0.5c0,0.276,0.224,0.5,0.5,0.5
					c0.276,0,0.5-0.224,0.5-0.5C128.396,209.779,128.172,209.555,127.896,209.555z"/>
				<path style="fill:#012840;" d="M132.687,209.555c-0.276,0-0.5,0.224-0.5,0.5c0,0.276,0.224,0.5,0.5,0.5s0.5-0.224,0.5-0.5
					C133.187,209.779,132.963,209.555,132.687,209.555z"/>
				<path style="fill:#012840;" d="M137.478,209.555c-0.276,0-0.5,0.224-0.5,0.5c0,0.276,0.224,0.5,0.5,0.5
					c0.276,0,0.5-0.224,0.5-0.5C137.978,209.779,137.754,209.555,137.478,209.555z"/>
				<path style="fill:#012840;" d="M94.36,214.346c-0.276,0-0.5,0.224-0.5,0.5c0,0.276,0.224,0.5,0.5,0.5c0.276,0,0.5-0.224,0.5-0.5
					C94.86,214.57,94.636,214.346,94.36,214.346z"/>
				<path style="fill:#012840;" d="M99.151,214.346c-0.276,0-0.5,0.224-0.5,0.5c0,0.276,0.224,0.5,0.5,0.5
					c0.276,0,0.5-0.224,0.5-0.5C99.651,214.57,99.427,214.346,99.151,214.346z"/>
				<path style="fill:#012840;" d="M103.941,214.346c-0.276,0-0.5,0.224-0.5,0.5c0,0.276,0.224,0.5,0.5,0.5s0.5-0.224,0.5-0.5
					C104.442,214.57,104.218,214.346,103.941,214.346z"/>
				<path style="fill:#012840;" d="M108.732,214.346c-0.276,0-0.5,0.224-0.5,0.5c0,0.276,0.224,0.5,0.5,0.5s0.5-0.224,0.5-0.5
					C109.232,214.57,109.009,214.346,108.732,214.346z"/>
				<path style="fill:#012840;" d="M113.523,214.346c-0.276,0-0.5,0.224-0.5,0.5c0,0.276,0.224,0.5,0.5,0.5s0.5-0.224,0.5-0.5
					C114.023,214.57,113.799,214.346,113.523,214.346z"/>
				<path style="fill:#012840;" d="M118.314,214.346c-0.276,0-0.5,0.224-0.5,0.5c0,0.276,0.224,0.5,0.5,0.5
					c0.276,0,0.5-0.224,0.5-0.5C118.814,214.57,118.59,214.346,118.314,214.346z"/>
				<path style="fill:#012840;" d="M123.105,214.346c-0.276,0-0.5,0.224-0.5,0.5c0,0.276,0.224,0.5,0.5,0.5
					c0.276,0,0.5-0.224,0.5-0.5C123.605,214.57,123.381,214.346,123.105,214.346z"/>
				<path style="fill:#012840;" d="M127.896,214.346c-0.276,0-0.5,0.224-0.5,0.5c0,0.276,0.224,0.5,0.5,0.5
					c0.276,0,0.5-0.224,0.5-0.5C128.396,214.57,128.172,214.346,127.896,214.346z"/>
				<path style="fill:#012840;" d="M132.687,214.346c-0.276,0-0.5,0.224-0.5,0.5c0,0.276,0.224,0.5,0.5,0.5s0.5-0.224,0.5-0.5
					C133.187,214.57,132.963,214.346,132.687,214.346z"/>
				<path style="fill:#012840;" d="M137.478,214.346c-0.276,0-0.5,0.224-0.5,0.5c0,0.276,0.224,0.5,0.5,0.5
					c0.276,0,0.5-0.224,0.5-0.5C137.978,214.57,137.754,214.346,137.478,214.346z"/>
				<circle style="fill:#012840;" cx="94.36" cy="219.637" r="0.5"/>
				<circle style="fill:#012840;" cx="99.151" cy="219.637" r="0.5"/>
				<circle style="fill:#012840;" cx="103.941" cy="219.637" r="0.5"/>
				<circle style="fill:#012840;" cx="108.732" cy="219.637" r="0.5"/>
				<path style="fill:#012840;" d="M113.523,219.137c-0.276,0-0.5,0.224-0.5,0.5s0.224,0.5,0.5,0.5s0.5-0.224,0.5-0.5
					S113.799,219.137,113.523,219.137z"/>
				<path style="fill:#012840;" d="M118.314,219.137c-0.276,0-0.5,0.224-0.5,0.5s0.224,0.5,0.5,0.5c0.276,0,0.5-0.224,0.5-0.5
					S118.59,219.137,118.314,219.137z"/>
				<circle style="fill:#012840;" cx="123.105" cy="219.637" r="0.5"/>
				<circle style="fill:#012840;" cx="127.896" cy="219.637" r="0.5"/>
				<circle style="fill:#012840;" cx="132.687" cy="219.637" r="0.5"/>
				<path style="fill:#012840;" d="M137.478,219.137c-0.276,0-0.5,0.224-0.5,0.5s0.224,0.5,0.5,0.5c0.276,0,0.5-0.224,0.5-0.5
					S137.754,219.137,137.478,219.137z"/>
			</g>
			<g>
				<circle style="fill:#012840;" cx="678.892" cy="443.546" r="0.5"/>
				<circle style="fill:#012840;" cx="678.892" cy="438.755" r="0.5"/>
				<path style="fill:#012840;" d="M678.392,433.964c0,0.276,0.224,0.5,0.5,0.5c0.276,0,0.5-0.224,0.5-0.5
					c0-0.276-0.224-0.5-0.5-0.5C678.616,433.464,678.392,433.688,678.392,433.964z"/>
				<circle style="fill:#012840;" cx="678.892" cy="429.173" r="0.5"/>
				<path style="fill:#012840;" d="M683.183,443.546c0,0.276,0.224,0.5,0.5,0.5s0.5-0.224,0.5-0.5c0-0.276-0.224-0.5-0.5-0.5
					S683.183,443.269,683.183,443.546z"/>
				<path style="fill:#012840;" d="M683.183,438.755c0,0.276,0.224,0.5,0.5,0.5s0.5-0.224,0.5-0.5s-0.224-0.5-0.5-0.5
					S683.183,438.478,683.183,438.755z"/>
				<path style="fill:#012840;" d="M683.183,433.964c0,0.276,0.224,0.5,0.5,0.5s0.5-0.224,0.5-0.5c0-0.276-0.224-0.5-0.5-0.5
					S683.183,433.688,683.183,433.964z"/>
				<path style="fill:#012840;" d="M683.183,429.173c0,0.276,0.224,0.5,0.5,0.5s0.5-0.224,0.5-0.5c0-0.276-0.224-0.5-0.5-0.5
					S683.183,428.897,683.183,429.173z"/>
				<path style="fill:#012840;" d="M687.974,443.546c0,0.276,0.224,0.5,0.5,0.5s0.5-0.224,0.5-0.5c0-0.276-0.224-0.5-0.5-0.5
					S687.974,443.269,687.974,443.546z"/>
				<path style="fill:#012840;" d="M687.974,438.755c0,0.276,0.224,0.5,0.5,0.5s0.5-0.224,0.5-0.5s-0.224-0.5-0.5-0.5
					S687.974,438.478,687.974,438.755z"/>
				<path style="fill:#012840;" d="M687.974,433.964c0,0.276,0.224,0.5,0.5,0.5s0.5-0.224,0.5-0.5c0-0.276-0.224-0.5-0.5-0.5
					S687.974,433.688,687.974,433.964z"/>
				<path style="fill:#012840;" d="M687.974,429.173c0,0.276,0.224,0.5,0.5,0.5s0.5-0.224,0.5-0.5c0-0.276-0.224-0.5-0.5-0.5
					S687.974,428.897,687.974,429.173z"/>
				<circle style="fill:#012840;" cx="693.265" cy="443.546" r="0.5"/>
				<circle style="fill:#012840;" cx="693.265" cy="438.755" r="0.5"/>
				<path style="fill:#012840;" d="M692.764,433.964c0,0.276,0.224,0.5,0.5,0.5s0.5-0.224,0.5-0.5c0-0.276-0.224-0.5-0.5-0.5
					S692.764,433.688,692.764,433.964z"/>
				<circle style="fill:#012840;" cx="693.265" cy="429.173" r="0.5"/>
				<circle style="fill:#012840;" cx="698.055" cy="443.546" r="0.5"/>
				<circle style="fill:#012840;" cx="698.055" cy="438.755" r="0.5"/>
				<path style="fill:#012840;" d="M697.555,433.964c0,0.276,0.224,0.5,0.5,0.5s0.5-0.224,0.5-0.5c0-0.276-0.224-0.5-0.5-0.5
					S697.555,433.688,697.555,433.964z"/>
				<circle style="fill:#012840;" cx="698.055" cy="429.173" r="0.5"/>
				<circle style="fill:#012840;" cx="702.846" cy="443.546" r="0.5"/>
				<circle style="fill:#012840;" cx="702.846" cy="438.755" r="0.5"/>
				<path style="fill:#012840;" d="M702.346,433.964c0,0.276,0.224,0.5,0.5,0.5s0.5-0.224,0.5-0.5c0-0.276-0.224-0.5-0.5-0.5
					S702.346,433.688,702.346,433.964z"/>
				<circle style="fill:#012840;" cx="702.846" cy="429.173" r="0.5"/>
				<path style="fill:#012840;" d="M707.137,443.546c0,0.276,0.224,0.5,0.5,0.5c0.276,0,0.5-0.224,0.5-0.5
					c0-0.276-0.224-0.5-0.5-0.5C707.361,443.046,707.137,443.269,707.137,443.546z"/>
				<path style="fill:#012840;" d="M707.137,438.755c0,0.276,0.224,0.5,0.5,0.5c0.276,0,0.5-0.224,0.5-0.5s-0.224-0.5-0.5-0.5
					C707.361,438.255,707.137,438.478,707.137,438.755z"/>
				<path style="fill:#012840;" d="M707.137,433.964c0,0.276,0.224,0.5,0.5,0.5c0.276,0,0.5-0.224,0.5-0.5
					c0-0.276-0.224-0.5-0.5-0.5C707.361,433.464,707.137,433.688,707.137,433.964z"/>
				<path style="fill:#012840;" d="M707.137,429.173c0,0.276,0.224,0.5,0.5,0.5c0.276,0,0.5-0.224,0.5-0.5
					c0-0.276-0.224-0.5-0.5-0.5C707.361,428.673,707.137,428.897,707.137,429.173z"/>
				<path style="fill:#012840;" d="M707.137,424.382c0,0.276,0.224,0.5,0.5,0.5c0.276,0,0.5-0.224,0.5-0.5
					c0-0.276-0.224-0.5-0.5-0.5C707.361,423.882,707.137,424.106,707.137,424.382z"/>
				<path style="fill:#012840;" d="M707.137,419.591c0,0.276,0.224,0.5,0.5,0.5c0.276,0,0.5-0.224,0.5-0.5
					c0-0.276-0.224-0.5-0.5-0.5C707.361,419.091,707.137,419.315,707.137,419.591z"/>
				<path style="fill:#012840;" d="M707.137,414.8c0,0.276,0.224,0.5,0.5,0.5c0.276,0,0.5-0.224,0.5-0.5c0-0.276-0.224-0.5-0.5-0.5
					C707.361,414.3,707.137,414.524,707.137,414.8z"/>
				<path style="fill:#012840;" d="M707.137,410.009c0,0.276,0.224,0.5,0.5,0.5c0.276,0,0.5-0.224,0.5-0.5
					c0-0.276-0.224-0.5-0.5-0.5C707.361,409.509,707.137,409.733,707.137,410.009z"/>
				<path style="fill:#012840;" d="M707.137,405.218c0,0.276,0.224,0.5,0.5,0.5c0.276,0,0.5-0.224,0.5-0.5
					c0-0.276-0.224-0.5-0.5-0.5C707.361,404.718,707.137,404.942,707.137,405.218z"/>
				<path style="fill:#012840;" d="M708.138,400.427c0-0.276-0.224-0.5-0.5-0.5c-0.276,0-0.5,0.224-0.5,0.5
					c0,0.276,0.224,0.5,0.5,0.5C707.913,400.927,708.138,400.703,708.138,400.427z"/>
				<circle style="fill:#012840;" cx="712.428" cy="443.546" r="0.5"/>
				<circle style="fill:#012840;" cx="712.428" cy="438.755" r="0.5"/>
				<path style="fill:#012840;" d="M711.928,433.964c0,0.276,0.224,0.5,0.5,0.5s0.5-0.224,0.5-0.5c0-0.276-0.224-0.5-0.5-0.5
					S711.928,433.688,711.928,433.964z"/>
				<circle style="fill:#012840;" cx="712.428" cy="429.173" r="0.5"/>
				<circle style="fill:#012840;" cx="712.428" cy="424.382" r="0.5"/>
				<circle style="fill:#012840;" cx="712.428" cy="419.591" r="0.5"/>
				<circle style="fill:#012840;" cx="712.428" cy="414.8" r="0.5"/>
				<path style="fill:#012840;" d="M711.928,410.009c0,0.276,0.224,0.5,0.5,0.5s0.5-0.224,0.5-0.5c0-0.276-0.224-0.5-0.5-0.5
					S711.928,409.733,711.928,410.009z"/>
				<circle style="fill:#012840;" cx="712.428" cy="405.218" r="0.5"/>
				<circle style="fill:#012840;" cx="712.428" cy="400.427" r="0.5"/>
				<circle style="fill:#012840;" cx="717.219" cy="443.546" r="0.5"/>
				<circle style="fill:#012840;" cx="717.219" cy="438.755" r="0.5"/>
				<path style="fill:#012840;" d="M716.719,433.964c0,0.276,0.224,0.5,0.5,0.5s0.5-0.224,0.5-0.5c0-0.276-0.224-0.5-0.5-0.5
					S716.719,433.688,716.719,433.964z"/>
				<circle style="fill:#012840;" cx="717.219" cy="429.173" r="0.5"/>
				<circle style="fill:#012840;" cx="717.219" cy="424.382" r="0.5"/>
				<circle style="fill:#012840;" cx="717.219" cy="419.591" r="0.5"/>
				<circle style="fill:#012840;" cx="717.219" cy="414.8" r="0.5"/>
				<path style="fill:#012840;" d="M716.719,410.009c0,0.276,0.224,0.5,0.5,0.5s0.5-0.224,0.5-0.5c0-0.276-0.224-0.5-0.5-0.5
					S716.719,409.733,716.719,410.009z"/>
				<circle style="fill:#012840;" cx="717.219" cy="405.218" r="0.5"/>
				<circle style="fill:#012840;" cx="717.219" cy="400.427" r="0.5"/>
				<path style="fill:#012840;" d="M721.51,443.546c0,0.276,0.224,0.5,0.5,0.5s0.5-0.224,0.5-0.5c0-0.276-0.224-0.5-0.5-0.5
					S721.51,443.269,721.51,443.546z"/>
				<path style="fill:#012840;" d="M721.51,438.755c0,0.276,0.224,0.5,0.5,0.5s0.5-0.224,0.5-0.5s-0.224-0.5-0.5-0.5
					S721.51,438.478,721.51,438.755z"/>
				<path style="fill:#012840;" d="M721.51,433.964c0,0.276,0.224,0.5,0.5,0.5s0.5-0.224,0.5-0.5c0-0.276-0.224-0.5-0.5-0.5
					S721.51,433.688,721.51,433.964z"/>
				<path style="fill:#012840;" d="M721.51,429.173c0,0.276,0.224,0.5,0.5,0.5s0.5-0.224,0.5-0.5c0-0.276-0.224-0.5-0.5-0.5
					S721.51,428.897,721.51,429.173z"/>
				<path style="fill:#012840;" d="M721.51,424.382c0,0.276,0.224,0.5,0.5,0.5s0.5-0.224,0.5-0.5c0-0.276-0.224-0.5-0.5-0.5
					S721.51,424.106,721.51,424.382z"/>
				<path style="fill:#012840;" d="M721.51,419.591c0,0.276,0.224,0.5,0.5,0.5s0.5-0.224,0.5-0.5c0-0.276-0.224-0.5-0.5-0.5
					S721.51,419.315,721.51,419.591z"/>
				<path style="fill:#012840;" d="M721.51,414.8c0,0.276,0.224,0.5,0.5,0.5s0.5-0.224,0.5-0.5c0-0.276-0.224-0.5-0.5-0.5
					S721.51,414.524,721.51,414.8z"/>
				<path style="fill:#012840;" d="M721.51,410.009c0,0.276,0.224,0.5,0.5,0.5s0.5-0.224,0.5-0.5c0-0.276-0.224-0.5-0.5-0.5
					S721.51,409.733,721.51,410.009z"/>
				<path style="fill:#012840;" d="M721.51,405.218c0,0.276,0.224,0.5,0.5,0.5s0.5-0.224,0.5-0.5c0-0.276-0.224-0.5-0.5-0.5
					S721.51,404.942,721.51,405.218z"/>
				<path style="fill:#012840;" d="M721.51,400.427c0,0.276,0.224,0.5,0.5,0.5s0.5-0.224,0.5-0.5c0-0.276-0.224-0.5-0.5-0.5
					S721.51,400.151,721.51,400.427z"/>
			</g>
			<g>
				<circle style="fill:#77C0F2;" cx="137.412" cy="508.563" r="0.5"/>
				<path style="fill:#77C0F2;" d="M142.203,509.063c-0.276,0-0.5-0.224-0.5-0.5c0-0.276,0.224-0.5,0.5-0.5
					c0.276,0,0.5,0.224,0.5,0.5C142.703,508.839,142.479,509.063,142.203,509.063z"/>
				<circle style="fill:#77C0F2;" cx="146.994" cy="508.563" r="0.5"/>
				<path style="fill:#77C0F2;" d="M151.785,509.063c-0.276,0-0.5-0.224-0.5-0.5c0-0.276,0.224-0.5,0.5-0.5s0.5,0.224,0.5,0.5
					C152.285,508.839,152.061,509.063,151.785,509.063z"/>
				<circle style="fill:#77C0F2;" cx="137.412" cy="503.772" r="0.5"/>
				<path style="fill:#77C0F2;" d="M142.203,504.272c-0.276,0-0.5-0.224-0.5-0.5c0-0.276,0.224-0.5,0.5-0.5
					c0.276,0,0.5,0.224,0.5,0.5C142.703,504.048,142.479,504.272,142.203,504.272z"/>
				<circle style="fill:#77C0F2;" cx="146.994" cy="503.772" r="0.5"/>
				<circle style="fill:#77C0F2;" cx="151.785" cy="503.772" r="0.5"/>
				<circle style="fill:#77C0F2;" cx="137.412" cy="498.981" r="0.5"/>
				<path style="fill:#77C0F2;" d="M142.203,499.481c-0.276,0-0.5-0.224-0.5-0.5c0-0.276,0.224-0.5,0.5-0.5
					c0.276,0,0.5,0.224,0.5,0.5C142.703,499.257,142.479,499.481,142.203,499.481z"/>
				<circle style="fill:#77C0F2;" cx="146.994" cy="498.981" r="0.5"/>
				<circle style="fill:#77C0F2;" cx="151.785" cy="498.981" r="0.5"/>
				<circle style="fill:#77C0F2;" cx="137.412" cy="494.19" r="0.5"/>
				<path style="fill:#77C0F2;" d="M142.203,494.69c-0.276,0-0.5-0.224-0.5-0.5c0-0.276,0.224-0.5,0.5-0.5
					c0.276,0,0.5,0.224,0.5,0.5C142.703,494.466,142.479,494.69,142.203,494.69z"/>
				<circle style="fill:#77C0F2;" cx="146.994" cy="494.19" r="0.5"/>
				<circle style="fill:#77C0F2;" cx="151.785" cy="494.19" r="0.5"/>
				<path style="fill:#77C0F2;" d="M137.412,489.899c-0.276,0-0.5-0.224-0.5-0.5c0-0.276,0.224-0.5,0.5-0.5s0.5,0.224,0.5,0.5
					C137.912,489.675,137.688,489.899,137.412,489.899z"/>
				<path style="fill:#77C0F2;" d="M142.203,489.899c-0.276,0-0.5-0.224-0.5-0.5c0-0.276,0.224-0.5,0.5-0.5
					c0.276,0,0.5,0.224,0.5,0.5C142.703,489.675,142.479,489.899,142.203,489.899z"/>
				<path style="fill:#77C0F2;" d="M146.994,489.899c-0.276,0-0.5-0.224-0.5-0.5c0-0.276,0.224-0.5,0.5-0.5s0.5,0.224,0.5,0.5
					C147.494,489.675,147.27,489.899,146.994,489.899z"/>
				<path style="fill:#77C0F2;" d="M151.785,489.899c-0.276,0-0.5-0.224-0.5-0.5c0-0.276,0.224-0.5,0.5-0.5s0.5,0.224,0.5,0.5
					C152.285,489.675,152.061,489.899,151.785,489.899z"/>
				<circle style="fill:#77C0F2;" cx="137.412" cy="484.608" r="0.5"/>
				<path style="fill:#77C0F2;" d="M142.203,485.108c-0.276,0-0.5-0.224-0.5-0.5c0-0.276,0.224-0.5,0.5-0.5
					c0.276,0,0.5,0.224,0.5,0.5C142.703,484.884,142.479,485.108,142.203,485.108z"/>
				<circle style="fill:#77C0F2;" cx="146.994" cy="484.608" r="0.5"/>
				<circle style="fill:#77C0F2;" cx="151.785" cy="484.608" r="0.5"/>
				<circle style="fill:#77C0F2;" cx="137.412" cy="479.817" r="0.5"/>
				<path style="fill:#77C0F2;" d="M142.203,480.317c-0.276,0-0.5-0.224-0.5-0.5c0-0.276,0.224-0.5,0.5-0.5
					c0.276,0,0.5,0.224,0.5,0.5C142.703,480.093,142.479,480.317,142.203,480.317z"/>
				<circle style="fill:#77C0F2;" cx="146.994" cy="479.817" r="0.5"/>
				<circle style="fill:#77C0F2;" cx="151.785" cy="479.817" r="0.5"/>
				<path style="fill:#77C0F2;" d="M156.576,480.317c-0.276,0-0.5-0.224-0.5-0.5c0-0.276,0.224-0.5,0.5-0.5
					c0.276,0,0.5,0.224,0.5,0.5C157.076,480.093,156.852,480.317,156.576,480.317z"/>
				<path style="fill:#77C0F2;" d="M161.367,480.317c-0.276,0-0.5-0.224-0.5-0.5c0-0.276,0.224-0.5,0.5-0.5
					c0.276,0,0.5,0.224,0.5,0.5C161.867,480.093,161.643,480.317,161.367,480.317z"/>
				<path style="fill:#77C0F2;" d="M166.158,480.317c-0.276,0-0.5-0.224-0.5-0.5c0-0.276,0.224-0.5,0.5-0.5s0.5,0.224,0.5,0.5
					C166.658,480.093,166.434,480.317,166.158,480.317z"/>
				<circle style="fill:#77C0F2;" cx="170.949" cy="479.817" r="0.5"/>
				<circle style="fill:#77C0F2;" cx="175.74" cy="479.817" r="0.5"/>
				<path style="fill:#77C0F2;" d="M180.531,479.317c0.276,0,0.5,0.224,0.5,0.5c0,0.276-0.224,0.5-0.5,0.5
					c-0.276,0-0.5-0.224-0.5-0.5C180.031,479.541,180.254,479.317,180.531,479.317z"/>
				<circle style="fill:#77C0F2;" cx="137.412" cy="475.026" r="0.5"/>
				<circle style="fill:#77C0F2;" cx="142.203" cy="475.026" r="0.5"/>
				<circle style="fill:#77C0F2;" cx="146.994" cy="475.026" r="0.5"/>
				<circle style="fill:#77C0F2;" cx="151.785" cy="475.026" r="0.5"/>
				<path style="fill:#77C0F2;" d="M156.576,475.526c-0.276,0-0.5-0.224-0.5-0.5c0-0.276,0.224-0.5,0.5-0.5
					c0.276,0,0.5,0.224,0.5,0.5C157.076,475.302,156.852,475.526,156.576,475.526z"/>
				<path style="fill:#77C0F2;" d="M161.367,475.526c-0.276,0-0.5-0.224-0.5-0.5c0-0.276,0.224-0.5,0.5-0.5
					c0.276,0,0.5,0.224,0.5,0.5C161.867,475.302,161.643,475.526,161.367,475.526z"/>
				<path style="fill:#77C0F2;" d="M166.158,475.526c-0.276,0-0.5-0.224-0.5-0.5c0-0.276,0.224-0.5,0.5-0.5s0.5,0.224,0.5,0.5
					C166.658,475.302,166.434,475.526,166.158,475.526z"/>
				<circle style="fill:#77C0F2;" cx="170.949" cy="475.026" r="0.5"/>
				<circle style="fill:#77C0F2;" cx="175.74" cy="475.026" r="0.5"/>
				<path style="fill:#77C0F2;" d="M180.531,475.526c-0.276,0-0.5-0.224-0.5-0.5c0-0.276,0.224-0.5,0.5-0.5
					c0.276,0,0.5,0.224,0.5,0.5C181.031,475.302,180.807,475.526,180.531,475.526z"/>
				<path style="fill:#77C0F2;" d="M137.412,470.735c-0.276,0-0.5-0.224-0.5-0.5c0-0.276,0.224-0.5,0.5-0.5s0.5,0.224,0.5,0.5
					C137.912,470.511,137.688,470.735,137.412,470.735z"/>
				<path style="fill:#77C0F2;" d="M142.203,470.735c-0.276,0-0.5-0.224-0.5-0.5c0-0.276,0.224-0.5,0.5-0.5s0.5,0.224,0.5,0.5
					C142.703,470.511,142.479,470.735,142.203,470.735z"/>
				<path style="fill:#77C0F2;" d="M146.994,470.735c-0.276,0-0.5-0.224-0.5-0.5c0-0.276,0.224-0.5,0.5-0.5s0.5,0.224,0.5,0.5
					C147.494,470.511,147.27,470.735,146.994,470.735z"/>
				<path style="fill:#77C0F2;" d="M151.785,470.735c-0.276,0-0.5-0.224-0.5-0.5c0-0.276,0.224-0.5,0.5-0.5s0.5,0.224,0.5,0.5
					C152.285,470.511,152.061,470.735,151.785,470.735z"/>
				<path style="fill:#77C0F2;" d="M156.576,470.735c-0.276,0-0.5-0.224-0.5-0.5c0-0.276,0.224-0.5,0.5-0.5
					c0.276,0,0.5,0.224,0.5,0.5C157.076,470.511,156.852,470.735,156.576,470.735z"/>
				<path style="fill:#77C0F2;" d="M161.367,470.735c-0.276,0-0.5-0.224-0.5-0.5c0-0.276,0.224-0.5,0.5-0.5
					c0.276,0,0.5,0.224,0.5,0.5C161.867,470.511,161.643,470.735,161.367,470.735z"/>
				<path style="fill:#77C0F2;" d="M166.158,470.735c-0.276,0-0.5-0.224-0.5-0.5c0-0.276,0.224-0.5,0.5-0.5s0.5,0.224,0.5,0.5
					C166.658,470.511,166.434,470.735,166.158,470.735z"/>
				<path style="fill:#77C0F2;" d="M170.949,470.735c-0.276,0-0.5-0.224-0.5-0.5c0-0.276,0.224-0.5,0.5-0.5
					c0.276,0,0.5,0.224,0.5,0.5C171.449,470.511,171.225,470.735,170.949,470.735z"/>
				<path style="fill:#77C0F2;" d="M175.74,470.735c-0.276,0-0.5-0.224-0.5-0.5c0-0.276,0.224-0.5,0.5-0.5s0.5,0.224,0.5,0.5
					C176.24,470.511,176.016,470.735,175.74,470.735z"/>
				<path style="fill:#77C0F2;" d="M180.531,470.735c-0.276,0-0.5-0.224-0.5-0.5c0-0.276,0.224-0.5,0.5-0.5
					c0.276,0,0.5,0.224,0.5,0.5C181.031,470.511,180.807,470.735,180.531,470.735z"/>
				<path style="fill:#77C0F2;" d="M137.412,465.944c-0.276,0-0.5-0.224-0.5-0.5c0-0.276,0.224-0.5,0.5-0.5s0.5,0.224,0.5,0.5
					C137.912,465.72,137.688,465.944,137.412,465.944z"/>
				<path style="fill:#77C0F2;" d="M142.203,465.944c-0.276,0-0.5-0.224-0.5-0.5c0-0.276,0.224-0.5,0.5-0.5s0.5,0.224,0.5,0.5
					C142.703,465.72,142.479,465.944,142.203,465.944z"/>
				<path style="fill:#77C0F2;" d="M146.994,465.944c-0.276,0-0.5-0.224-0.5-0.5c0-0.276,0.224-0.5,0.5-0.5s0.5,0.224,0.5,0.5
					C147.494,465.72,147.27,465.944,146.994,465.944z"/>
				<path style="fill:#77C0F2;" d="M151.785,465.944c-0.276,0-0.5-0.224-0.5-0.5c0-0.276,0.224-0.5,0.5-0.5s0.5,0.224,0.5,0.5
					C152.285,465.72,152.061,465.944,151.785,465.944z"/>
				<path style="fill:#77C0F2;" d="M156.576,465.944c-0.276,0-0.5-0.224-0.5-0.5c0-0.276,0.224-0.5,0.5-0.5
					c0.276,0,0.5,0.224,0.5,0.5C157.076,465.72,156.852,465.944,156.576,465.944z"/>
				<path style="fill:#77C0F2;" d="M161.367,465.944c-0.276,0-0.5-0.224-0.5-0.5c0-0.276,0.224-0.5,0.5-0.5
					c0.276,0,0.5,0.224,0.5,0.5C161.867,465.72,161.643,465.944,161.367,465.944z"/>
				<path style="fill:#77C0F2;" d="M166.158,465.944c-0.276,0-0.5-0.224-0.5-0.5c0-0.276,0.224-0.5,0.5-0.5s0.5,0.224,0.5,0.5
					C166.658,465.72,166.434,465.944,166.158,465.944z"/>
				<path style="fill:#77C0F2;" d="M170.949,465.944c-0.276,0-0.5-0.224-0.5-0.5c0-0.276,0.224-0.5,0.5-0.5
					c0.276,0,0.5,0.224,0.5,0.5C171.449,465.72,171.225,465.944,170.949,465.944z"/>
				<path style="fill:#77C0F2;" d="M175.74,465.944c-0.276,0-0.5-0.224-0.5-0.5c0-0.276,0.224-0.5,0.5-0.5s0.5,0.224,0.5,0.5
					C176.24,465.72,176.016,465.944,175.74,465.944z"/>
				<path style="fill:#77C0F2;" d="M180.531,465.944c-0.276,0-0.5-0.224-0.5-0.5c0-0.276,0.224-0.5,0.5-0.5
					c0.276,0,0.5,0.224,0.5,0.5C181.031,465.72,180.807,465.944,180.531,465.944z"/>
			</g>
			<g>
				<path style="fill:#EA5066;" d="M713.429,33.934c0.276,0,0.5-0.224,0.5-0.5c0-0.276-0.224-0.5-0.5-0.5
					c-0.276,0-0.5,0.224-0.5,0.5C712.928,33.71,713.152,33.934,713.429,33.934z"/>
				<path style="fill:#EA5066;" d="M708.638,33.934c0.276,0,0.5-0.224,0.5-0.5c0-0.276-0.224-0.5-0.5-0.5s-0.5,0.224-0.5,0.5
					C708.138,33.71,708.361,33.934,708.638,33.934z"/>
				<path style="fill:#EA5066;" d="M703.847,33.934c0.276,0,0.5-0.224,0.5-0.5c0-0.276-0.224-0.5-0.5-0.5s-0.5,0.224-0.5,0.5
					C703.347,33.71,703.57,33.934,703.847,33.934z"/>
				<path style="fill:#EA5066;" d="M699.056,33.934c0.276,0,0.5-0.224,0.5-0.5c0-0.276-0.224-0.5-0.5-0.5s-0.5,0.224-0.5,0.5
					C698.556,33.71,698.78,33.934,699.056,33.934z"/>
				<path style="fill:#EA5066;" d="M713.429,29.143c0.276,0,0.5-0.224,0.5-0.5c0-0.276-0.224-0.5-0.5-0.5
					c-0.276,0-0.5,0.224-0.5,0.5C712.928,28.92,713.152,29.143,713.429,29.143z"/>
				<circle style="fill:#EA5066;" cx="708.638" cy="28.643" r="0.5"/>
				<circle style="fill:#EA5066;" cx="703.847" cy="28.643" r="0.5"/>
				<path style="fill:#EA5066;" d="M699.056,29.143c0.276,0,0.5-0.224,0.5-0.5c0-0.276-0.224-0.5-0.5-0.5s-0.5,0.224-0.5,0.5
					C698.556,28.92,698.78,29.143,699.056,29.143z"/>
				<path style="fill:#EA5066;" d="M713.429,24.353c0.276,0,0.5-0.224,0.5-0.5s-0.224-0.5-0.5-0.5c-0.276,0-0.5,0.224-0.5,0.5
					S713.152,24.353,713.429,24.353z"/>
				<circle style="fill:#EA5066;" cx="708.638" cy="23.852" r="0.5"/>
				<circle style="fill:#EA5066;" cx="703.847" cy="23.852" r="0.5"/>
				<path style="fill:#EA5066;" d="M699.056,24.353c0.276,0,0.5-0.224,0.5-0.5s-0.224-0.5-0.5-0.5s-0.5,0.224-0.5,0.5
					S698.78,24.353,699.056,24.353z"/>
				<path style="fill:#EA5066;" d="M713.429,19.562c0.276,0,0.5-0.224,0.5-0.5c0-0.276-0.224-0.5-0.5-0.5
					c-0.276,0-0.5,0.224-0.5,0.5C712.928,19.338,713.152,19.562,713.429,19.562z"/>
				<circle style="fill:#EA5066;" cx="708.638" cy="19.062" r="0.5"/>
				<circle style="fill:#EA5066;" cx="703.847" cy="19.062" r="0.5"/>
				<path style="fill:#EA5066;" d="M699.056,19.562c0.276,0,0.5-0.224,0.5-0.5c0-0.276-0.224-0.5-0.5-0.5s-0.5,0.224-0.5,0.5
					C698.556,19.338,698.78,19.562,699.056,19.562z"/>
				<path style="fill:#EA5066;" d="M713.429,14.771c0.276,0,0.5-0.224,0.5-0.5c0-0.276-0.224-0.5-0.5-0.5
					c-0.276,0-0.5,0.224-0.5,0.5C712.928,14.547,713.152,14.771,713.429,14.771z"/>
				<path style="fill:#EA5066;" d="M708.638,14.771c0.276,0,0.5-0.224,0.5-0.5c0-0.276-0.224-0.5-0.5-0.5s-0.5,0.224-0.5,0.5
					C708.138,14.547,708.361,14.771,708.638,14.771z"/>
				<path style="fill:#EA5066;" d="M703.847,14.771c0.276,0,0.5-0.224,0.5-0.5c0-0.276-0.224-0.5-0.5-0.5s-0.5,0.224-0.5,0.5
					C703.347,14.547,703.57,14.771,703.847,14.771z"/>
				<path style="fill:#EA5066;" d="M699.056,14.771c0.276,0,0.5-0.224,0.5-0.5c0-0.276-0.224-0.5-0.5-0.5s-0.5,0.224-0.5,0.5
					C698.556,14.547,698.78,14.771,699.056,14.771z"/>
				<path style="fill:#EA5066;" d="M713.429,9.98c0.276,0,0.5-0.224,0.5-0.5c0-0.276-0.224-0.5-0.5-0.5c-0.276,0-0.5,0.224-0.5,0.5
					C712.928,9.756,713.152,9.98,713.429,9.98z"/>
				<path style="fill:#EA5066;" d="M708.638,9.98c0.276,0,0.5-0.224,0.5-0.5c0-0.276-0.224-0.5-0.5-0.5s-0.5,0.224-0.5,0.5
					C708.138,9.756,708.361,9.98,708.638,9.98z"/>
				<path style="fill:#EA5066;" d="M703.847,9.98c0.276,0,0.5-0.224,0.5-0.5c0-0.276-0.224-0.5-0.5-0.5s-0.5,0.224-0.5,0.5
					C703.347,9.756,703.57,9.98,703.847,9.98z"/>
				<path style="fill:#EA5066;" d="M699.056,9.98c0.276,0,0.5-0.224,0.5-0.5c0-0.276-0.224-0.5-0.5-0.5s-0.5,0.224-0.5,0.5
					C698.556,9.756,698.78,9.98,699.056,9.98z"/>
				<path style="fill:#EA5066;" d="M713.428,5.189c0.276,0,0.5-0.224,0.5-0.5c0-0.276-0.224-0.5-0.5-0.5c-0.276,0-0.5,0.224-0.5,0.5
					C712.928,4.965,713.152,5.189,713.428,5.189z"/>
				<circle style="fill:#EA5066;" cx="708.638" cy="4.689" r="0.5"/>
				<circle style="fill:#EA5066;" cx="703.847" cy="4.689" r="0.5"/>
				<path style="fill:#EA5066;" d="M699.056,5.189c0.276,0,0.5-0.224,0.5-0.5c0-0.276-0.224-0.5-0.5-0.5s-0.5,0.224-0.5,0.5
					C698.556,4.965,698.78,5.189,699.056,5.189z"/>
				<path style="fill:#EA5066;" d="M694.265,5.189c0.276,0,0.5-0.224,0.5-0.5c0-0.276-0.224-0.5-0.5-0.5c-0.276,0-0.5,0.224-0.5,0.5
					C693.765,4.965,693.989,5.189,694.265,5.189z"/>
				<path style="fill:#EA5066;" d="M689.474,5.189c0.276,0,0.5-0.224,0.5-0.5c0-0.276-0.224-0.5-0.5-0.5s-0.5,0.224-0.5,0.5
					C688.974,4.965,689.198,5.189,689.474,5.189z"/>
				<path style="fill:#EA5066;" d="M684.683,5.189c0.276,0,0.5-0.224,0.5-0.5c0-0.276-0.224-0.5-0.5-0.5s-0.5,0.224-0.5,0.5
					C684.183,4.965,684.407,5.189,684.683,5.189z"/>
				<path style="fill:#EA5066;" d="M679.892,5.189c0.276,0,0.5-0.224,0.5-0.5c0-0.276-0.224-0.5-0.5-0.5s-0.5,0.224-0.5,0.5
					C679.392,4.965,679.616,5.189,679.892,5.189z"/>
				<path style="fill:#EA5066;" d="M675.101,5.189c0.276,0,0.5-0.224,0.5-0.5c0-0.276-0.224-0.5-0.5-0.5c-0.276,0-0.5,0.224-0.5,0.5
					C674.601,4.965,674.825,5.189,675.101,5.189z"/>
				<path style="fill:#EA5066;" d="M670.31,4.189c-0.276,0-0.5,0.224-0.5,0.5c0,0.276,0.224,0.5,0.5,0.5s0.5-0.224,0.5-0.5
					C670.81,4.413,670.586,4.189,670.31,4.189z"/>
				<path style="fill:#EA5066;" d="M713.428,0.398c0.276,0,0.5-0.224,0.5-0.5c0-0.276-0.224-0.5-0.5-0.5c-0.276,0-0.5,0.224-0.5,0.5
					C712.928,0.174,713.152,0.398,713.428,0.398z"/>
				<circle style="fill:#EA5066;" cx="708.638" cy="-0.102" r="0.5"/>
				<circle style="fill:#EA5066;" cx="703.847" cy="-0.102" r="0.5"/>
				<path style="fill:#EA5066;" d="M699.056,0.398c0.276,0,0.5-0.224,0.5-0.5c0-0.276-0.224-0.5-0.5-0.5s-0.5,0.224-0.5,0.5
					C698.556,0.174,698.78,0.398,699.056,0.398z"/>
				<path style="fill:#EA5066;" d="M694.265,0.398c0.276,0,0.5-0.224,0.5-0.5c0-0.276-0.224-0.5-0.5-0.5c-0.276,0-0.5,0.224-0.5,0.5
					C693.765,0.174,693.989,0.398,694.265,0.398z"/>
				<path style="fill:#EA5066;" d="M689.474,0.398c0.276,0,0.5-0.224,0.5-0.5c0-0.276-0.224-0.5-0.5-0.5s-0.5,0.224-0.5,0.5
					C688.974,0.174,689.198,0.398,689.474,0.398z"/>
				<path style="fill:#EA5066;" d="M684.683,0.398c0.276,0,0.5-0.224,0.5-0.5c0-0.276-0.224-0.5-0.5-0.5s-0.5,0.224-0.5,0.5
					C684.183,0.174,684.407,0.398,684.683,0.398z"/>
				<path style="fill:#EA5066;" d="M679.892,0.398c0.276,0,0.5-0.224,0.5-0.5c0-0.276-0.224-0.5-0.5-0.5c-0.276,0-0.5,0.224-0.5,0.5
					C679.392,0.174,679.616,0.398,679.892,0.398z"/>
				<path style="fill:#EA5066;" d="M675.101,0.398c0.276,0,0.5-0.224,0.5-0.5c0-0.276-0.224-0.5-0.5-0.5c-0.276,0-0.5,0.224-0.5,0.5
					C674.601,0.174,674.825,0.398,675.101,0.398z"/>
				<path style="fill:#EA5066;" d="M670.31,0.398c0.276,0,0.5-0.224,0.5-0.5c0-0.276-0.224-0.5-0.5-0.5c-0.276,0-0.5,0.224-0.5,0.5
					C669.81,0.174,670.034,0.398,670.31,0.398z"/>
				<path style="fill:#EA5066;" d="M713.428-4.393c0.276,0,0.5-0.224,0.5-0.5c0-0.276-0.224-0.5-0.5-0.5c-0.276,0-0.5,0.224-0.5,0.5
					C712.928-4.617,713.152-4.393,713.428-4.393z"/>
				<path style="fill:#EA5066;" d="M708.638-4.393c0.276,0,0.5-0.224,0.5-0.5c0-0.276-0.224-0.5-0.5-0.5s-0.5,0.224-0.5,0.5
					C708.138-4.617,708.361-4.393,708.638-4.393z"/>
				<path style="fill:#EA5066;" d="M703.847-4.393c0.276,0,0.5-0.224,0.5-0.5c0-0.276-0.224-0.5-0.5-0.5s-0.5,0.224-0.5,0.5
					C703.347-4.617,703.57-4.393,703.847-4.393z"/>
				<path style="fill:#EA5066;" d="M699.056-4.393c0.276,0,0.5-0.224,0.5-0.5c0-0.276-0.224-0.5-0.5-0.5s-0.5,0.224-0.5,0.5
					C698.556-4.617,698.78-4.393,699.056-4.393z"/>
				<path style="fill:#EA5066;" d="M694.265-4.393c0.276,0,0.5-0.224,0.5-0.5c0-0.276-0.224-0.5-0.5-0.5c-0.276,0-0.5,0.224-0.5,0.5
					C693.765-4.617,693.989-4.393,694.265-4.393z"/>
				<path style="fill:#EA5066;" d="M689.474-4.393c0.276,0,0.5-0.224,0.5-0.5c0-0.276-0.224-0.5-0.5-0.5s-0.5,0.224-0.5,0.5
					C688.974-4.617,689.198-4.393,689.474-4.393z"/>
				<path style="fill:#EA5066;" d="M684.683-4.393c0.276,0,0.5-0.224,0.5-0.5c0-0.276-0.224-0.5-0.5-0.5s-0.5,0.224-0.5,0.5
					C684.183-4.617,684.407-4.393,684.683-4.393z"/>
				<path style="fill:#EA5066;" d="M679.892-4.393c0.276,0,0.5-0.224,0.5-0.5c0-0.276-0.224-0.5-0.5-0.5s-0.5,0.224-0.5,0.5
					C679.392-4.617,679.616-4.393,679.892-4.393z"/>
				<path style="fill:#EA5066;" d="M675.101-4.393c0.276,0,0.5-0.224,0.5-0.5c0-0.276-0.224-0.5-0.5-0.5c-0.276,0-0.5,0.224-0.5,0.5
					C674.601-4.617,674.825-4.393,675.101-4.393z"/>
				<path style="fill:#EA5066;" d="M670.31-4.393c0.276,0,0.5-0.224,0.5-0.5c0-0.276-0.224-0.5-0.5-0.5s-0.5,0.224-0.5,0.5
					C669.81-4.617,670.034-4.393,670.31-4.393z"/>
				<path style="fill:#EA5066;" d="M713.428-9.184c0.276,0,0.5-0.224,0.5-0.5c0-0.276-0.224-0.5-0.5-0.5c-0.276,0-0.5,0.224-0.5,0.5
					C712.928-9.408,713.152-9.184,713.428-9.184z"/>
				<path style="fill:#EA5066;" d="M708.638-9.184c0.276,0,0.5-0.224,0.5-0.5c0-0.276-0.224-0.5-0.5-0.5s-0.5,0.224-0.5,0.5
					C708.138-9.408,708.361-9.184,708.638-9.184z"/>
				<path style="fill:#EA5066;" d="M703.847-9.184c0.276,0,0.5-0.224,0.5-0.5c0-0.276-0.224-0.5-0.5-0.5s-0.5,0.224-0.5,0.5
					C703.347-9.408,703.57-9.184,703.847-9.184z"/>
				<path style="fill:#EA5066;" d="M699.056-9.184c0.276,0,0.5-0.224,0.5-0.5c0-0.276-0.224-0.5-0.5-0.5s-0.5,0.224-0.5,0.5
					C698.556-9.408,698.78-9.184,699.056-9.184z"/>
				<path style="fill:#EA5066;" d="M694.265-9.184c0.276,0,0.5-0.224,0.5-0.5c0-0.276-0.224-0.5-0.5-0.5c-0.276,0-0.5,0.224-0.5,0.5
					C693.765-9.408,693.989-9.184,694.265-9.184z"/>
				<path style="fill:#EA5066;" d="M689.474-9.184c0.276,0,0.5-0.224,0.5-0.5c0-0.276-0.224-0.5-0.5-0.5s-0.5,0.224-0.5,0.5
					C688.974-9.408,689.198-9.184,689.474-9.184z"/>
				<path style="fill:#EA5066;" d="M684.683-9.184c0.276,0,0.5-0.224,0.5-0.5c0-0.276-0.224-0.5-0.5-0.5s-0.5,0.224-0.5,0.5
					C684.183-9.408,684.407-9.184,684.683-9.184z"/>
				<path style="fill:#EA5066;" d="M679.892-9.184c0.276,0,0.5-0.224,0.5-0.5c0-0.276-0.224-0.5-0.5-0.5s-0.5,0.224-0.5,0.5
					C679.392-9.408,679.616-9.184,679.892-9.184z"/>
				<path style="fill:#EA5066;" d="M675.101-9.184c0.276,0,0.5-0.224,0.5-0.5c0-0.276-0.224-0.5-0.5-0.5c-0.276,0-0.5,0.224-0.5,0.5
					C674.601-9.408,674.825-9.184,675.101-9.184z"/>
				<path style="fill:#EA5066;" d="M670.31-9.184c0.276,0,0.5-0.224,0.5-0.5c0-0.276-0.224-0.5-0.5-0.5s-0.5,0.224-0.5,0.5
					C669.81-9.408,670.034-9.184,670.31-9.184z"/>
			</g>
			<g>
				<path style="fill:#77C0F2;" d="M522.148,44.611c0-0.276,0.224-0.5,0.5-0.5s0.5,0.224,0.5,0.5s-0.224,0.5-0.5,0.5
					S522.148,44.887,522.148,44.611z"/>
				<path style="fill:#77C0F2;" d="M522.148,49.401c0-0.276,0.224-0.5,0.5-0.5s0.5,0.224,0.5,0.5c0,0.276-0.224,0.5-0.5,0.5
					S522.148,49.678,522.148,49.401z"/>
				<path style="fill:#77C0F2;" d="M522.148,54.192c0-0.276,0.224-0.5,0.5-0.5s0.5,0.224,0.5,0.5c0,0.276-0.224,0.5-0.5,0.5
					S522.148,54.468,522.148,54.192z"/>
				<path style="fill:#77C0F2;" d="M522.148,58.983c0-0.276,0.224-0.5,0.5-0.5s0.5,0.224,0.5,0.5c0,0.276-0.224,0.5-0.5,0.5
					S522.148,59.259,522.148,58.983z"/>
				<circle style="fill:#77C0F2;" cx="527.439" cy="44.611" r="0.5"/>
				<circle style="fill:#77C0F2;" cx="527.439" cy="49.401" r="0.5"/>
				<path style="fill:#77C0F2;" d="M526.939,54.192c0-0.276,0.224-0.5,0.5-0.5c0.276,0,0.5,0.224,0.5,0.5c0,0.276-0.224,0.5-0.5,0.5
					C527.163,54.693,526.939,54.468,526.939,54.192z"/>
				<circle style="fill:#77C0F2;" cx="527.439" cy="58.983" r="0.5"/>
				<path style="fill:#77C0F2;" d="M531.73,44.611c0-0.276,0.224-0.5,0.5-0.5c0.276,0,0.5,0.224,0.5,0.5s-0.224,0.5-0.5,0.5
					C531.954,45.111,531.73,44.887,531.73,44.611z"/>
				<path style="fill:#77C0F2;" d="M531.73,49.401c0-0.276,0.224-0.5,0.5-0.5c0.276,0,0.5,0.224,0.5,0.5c0,0.276-0.224,0.5-0.5,0.5
					C531.954,49.902,531.73,49.678,531.73,49.401z"/>
				<path style="fill:#77C0F2;" d="M531.73,54.192c0-0.276,0.224-0.5,0.5-0.5c0.276,0,0.5,0.224,0.5,0.5c0,0.276-0.224,0.5-0.5,0.5
					C531.954,54.693,531.73,54.468,531.73,54.192z"/>
				<path style="fill:#77C0F2;" d="M531.73,58.983c0-0.276,0.224-0.5,0.5-0.5c0.276,0,0.5,0.224,0.5,0.5c0,0.276-0.224,0.5-0.5,0.5
					C531.954,59.483,531.73,59.259,531.73,58.983z"/>
				<path style="fill:#77C0F2;" d="M536.521,44.611c0-0.276,0.224-0.5,0.5-0.5s0.5,0.224,0.5,0.5s-0.224,0.5-0.5,0.5
					S536.521,44.887,536.521,44.611z"/>
				<path style="fill:#77C0F2;" d="M536.521,49.401c0-0.276,0.224-0.5,0.5-0.5s0.5,0.224,0.5,0.5c0,0.276-0.224,0.5-0.5,0.5
					S536.521,49.678,536.521,49.401z"/>
				<path style="fill:#77C0F2;" d="M536.521,54.192c0-0.276,0.224-0.5,0.5-0.5s0.5,0.224,0.5,0.5c0,0.276-0.224,0.5-0.5,0.5
					S536.521,54.468,536.521,54.192z"/>
				<path style="fill:#77C0F2;" d="M536.521,58.983c0-0.276,0.224-0.5,0.5-0.5s0.5,0.224,0.5,0.5c0,0.276-0.224,0.5-0.5,0.5
					S536.521,59.259,536.521,58.983z"/>
				<circle style="fill:#77C0F2;" cx="541.812" cy="44.611" r="0.5"/>
				<circle style="fill:#77C0F2;" cx="541.812" cy="49.401" r="0.5"/>
				<path style="fill:#77C0F2;" d="M541.311,54.192c0-0.276,0.224-0.5,0.5-0.5s0.5,0.224,0.5,0.5c0,0.276-0.224,0.5-0.5,0.5
					S541.311,54.468,541.311,54.192z"/>
				<circle style="fill:#77C0F2;" cx="541.812" cy="58.983" r="0.5"/>
				<circle style="fill:#77C0F2;" cx="546.602" cy="44.611" r="0.5"/>
				<circle style="fill:#77C0F2;" cx="546.602" cy="49.401" r="0.5"/>
				<path style="fill:#77C0F2;" d="M546.102,54.192c0-0.276,0.224-0.5,0.5-0.5s0.5,0.224,0.5,0.5c0,0.276-0.224,0.5-0.5,0.5
					S546.102,54.468,546.102,54.192z"/>
				<circle style="fill:#77C0F2;" cx="546.602" cy="58.983" r="0.5"/>
				<path style="fill:#77C0F2;" d="M550.893,44.611c0-0.276,0.224-0.5,0.5-0.5c0.276,0,0.5,0.224,0.5,0.5s-0.224,0.5-0.5,0.5
					C551.117,45.111,550.893,44.887,550.893,44.611z"/>
				<path style="fill:#77C0F2;" d="M550.893,49.401c0-0.276,0.224-0.5,0.5-0.5c0.276,0,0.5,0.224,0.5,0.5c0,0.276-0.224,0.5-0.5,0.5
					C551.117,49.902,550.893,49.678,550.893,49.401z"/>
				<path style="fill:#77C0F2;" d="M550.893,54.192c0-0.276,0.224-0.5,0.5-0.5c0.276,0,0.5,0.224,0.5,0.5c0,0.276-0.224,0.5-0.5,0.5
					C551.117,54.693,550.893,54.468,550.893,54.192z"/>
				<path style="fill:#77C0F2;" d="M550.893,58.983c0-0.276,0.224-0.5,0.5-0.5c0.276,0,0.5,0.224,0.5,0.5s-0.224,0.5-0.5,0.5
					S550.893,59.259,550.893,58.983z"/>
				<path style="fill:#77C0F2;" d="M550.893,63.774c0-0.276,0.224-0.5,0.5-0.5s0.5,0.224,0.5,0.5s-0.224,0.5-0.5,0.5
					S550.893,64.05,550.893,63.774z"/>
				<path style="fill:#77C0F2;" d="M550.893,68.565c0-0.276,0.224-0.5,0.5-0.5s0.5,0.224,0.5,0.5s-0.224,0.5-0.5,0.5
					S550.893,68.841,550.893,68.565z"/>
				<path style="fill:#77C0F2;" d="M550.893,73.356c0-0.276,0.224-0.5,0.5-0.5s0.5,0.224,0.5,0.5c0,0.276-0.224,0.5-0.5,0.5
					S550.893,73.632,550.893,73.356z"/>
				<path style="fill:#77C0F2;" d="M550.893,78.147c0-0.276,0.224-0.5,0.5-0.5s0.5,0.224,0.5,0.5c0,0.276-0.224,0.5-0.5,0.5
					S550.893,78.423,550.893,78.147z"/>
				<path style="fill:#77C0F2;" d="M550.893,82.938c0-0.276,0.224-0.5,0.5-0.5s0.5,0.224,0.5,0.5c0,0.276-0.224,0.5-0.5,0.5
					S550.893,83.214,550.893,82.938z"/>
				<path style="fill:#77C0F2;" d="M551.894,87.729c0,0.276-0.224,0.5-0.5,0.5s-0.5-0.224-0.5-0.5s0.224-0.5,0.5-0.5
					S551.894,87.453,551.894,87.729z"/>
				<circle style="fill:#77C0F2;" cx="556.184" cy="44.611" r="0.5"/>
				<circle style="fill:#77C0F2;" cx="556.184" cy="49.401" r="0.5"/>
				<path style="fill:#77C0F2;" d="M555.684,54.192c0-0.276,0.224-0.5,0.5-0.5c0.276,0,0.5,0.224,0.5,0.5c0,0.276-0.224,0.5-0.5,0.5
					C555.908,54.693,555.684,54.468,555.684,54.192z"/>
				<circle style="fill:#77C0F2;" cx="556.184" cy="58.983" r="0.5"/>
				<path style="fill:#77C0F2;" d="M555.684,63.774c0-0.276,0.224-0.5,0.5-0.5c0.276,0,0.5,0.224,0.5,0.5s-0.224,0.5-0.5,0.5
					C555.908,64.274,555.684,64.05,555.684,63.774z"/>
				<path style="fill:#77C0F2;" d="M555.684,68.565c0-0.276,0.224-0.5,0.5-0.5c0.276,0,0.5,0.224,0.5,0.5s-0.224,0.5-0.5,0.5
					C555.908,69.065,555.684,68.841,555.684,68.565z"/>
				<path style="fill:#77C0F2;" d="M555.684,73.356c0-0.276,0.224-0.5,0.5-0.5c0.276,0,0.5,0.224,0.5,0.5c0,0.276-0.224,0.5-0.5,0.5
					C555.908,73.856,555.684,73.632,555.684,73.356z"/>
				<path style="fill:#77C0F2;" d="M555.684,78.147c0-0.276,0.224-0.5,0.5-0.5c0.276,0,0.5,0.224,0.5,0.5c0,0.276-0.224,0.5-0.5,0.5
					C555.908,78.647,555.684,78.423,555.684,78.147z"/>
				<path style="fill:#77C0F2;" d="M555.684,82.938c0-0.276,0.224-0.5,0.5-0.5c0.276,0,0.5,0.224,0.5,0.5c0,0.276-0.224,0.5-0.5,0.5
					C555.908,83.438,555.684,83.214,555.684,82.938z"/>
				<path style="fill:#77C0F2;" d="M555.684,87.729c0-0.276,0.224-0.5,0.5-0.5c0.276,0,0.5,0.224,0.5,0.5s-0.224,0.5-0.5,0.5
					C555.908,88.229,555.684,88.005,555.684,87.729z"/>
				<circle style="fill:#77C0F2;" cx="560.975" cy="44.611" r="0.5"/>
				<circle style="fill:#77C0F2;" cx="560.975" cy="49.401" r="0.5"/>
				<path style="fill:#77C0F2;" d="M560.475,54.192c0-0.276,0.224-0.5,0.5-0.5s0.5,0.224,0.5,0.5c0,0.276-0.224,0.5-0.5,0.5
					S560.475,54.469,560.475,54.192z"/>
				<circle style="fill:#77C0F2;" cx="560.975" cy="58.983" r="0.5"/>
				<circle style="fill:#77C0F2;" cx="560.975" cy="63.774" r="0.5"/>
				<circle style="fill:#77C0F2;" cx="560.975" cy="68.565" r="0.5"/>
				<path style="fill:#77C0F2;" d="M560.475,73.356c0-0.276,0.224-0.5,0.5-0.5s0.5,0.224,0.5,0.5c0,0.276-0.224,0.5-0.5,0.5
					S560.475,73.632,560.475,73.356z"/>
				<path style="fill:#77C0F2;" d="M560.475,78.147c0-0.276,0.224-0.5,0.5-0.5s0.5,0.224,0.5,0.5c0,0.276-0.224,0.5-0.5,0.5
					S560.475,78.423,560.475,78.147z"/>
				<circle style="fill:#77C0F2;" cx="560.975" cy="82.938" r="0.5"/>
				<circle style="fill:#77C0F2;" cx="560.975" cy="87.729" r="0.5"/>
				<circle style="fill:#77C0F2;" cx="565.766" cy="44.611" r="0.5"/>
				<circle style="fill:#77C0F2;" cx="565.766" cy="49.401" r="0.5"/>
				<path style="fill:#77C0F2;" d="M565.266,54.192c0-0.276,0.224-0.5,0.5-0.5s0.5,0.224,0.5,0.5c0,0.276-0.224,0.5-0.5,0.5
					S565.266,54.469,565.266,54.192z"/>
				<circle style="fill:#77C0F2;" cx="565.766" cy="58.983" r="0.5"/>
				<circle style="fill:#77C0F2;" cx="565.766" cy="63.774" r="0.5"/>
				<circle style="fill:#77C0F2;" cx="565.766" cy="68.565" r="0.5"/>
				<path style="fill:#77C0F2;" d="M565.266,73.356c0-0.276,0.224-0.5,0.5-0.5s0.5,0.224,0.5,0.5c0,0.276-0.224,0.5-0.5,0.5
					S565.266,73.632,565.266,73.356z"/>
				<path style="fill:#77C0F2;" d="M565.266,78.147c0-0.276,0.224-0.5,0.5-0.5s0.5,0.224,0.5,0.5c0,0.276-0.224,0.5-0.5,0.5
					S565.266,78.423,565.266,78.147z"/>
				<circle style="fill:#77C0F2;" cx="565.766" cy="82.938" r="0.5"/>
				<circle style="fill:#77C0F2;" cx="565.766" cy="87.729" r="0.5"/>
			</g>
			<g>
				<path style="fill:#EA5066;" d="M34.849,22.551c0.276,0,0.5,0.224,0.5,0.5c0,0.276-0.224,0.5-0.5,0.5c-0.276,0-0.5-0.224-0.5-0.5
					C34.349,22.775,34.573,22.551,34.849,22.551z"/>
				<path style="fill:#EA5066;" d="M30.059,22.551c0.276,0,0.5,0.224,0.5,0.5c0,0.276-0.224,0.5-0.5,0.5s-0.5-0.224-0.5-0.5
					C29.558,22.775,29.782,22.551,30.059,22.551z"/>
				<path style="fill:#EA5066;" d="M25.268,22.551c0.276,0,0.5,0.224,0.5,0.5s-0.224,0.5-0.5,0.5c-0.276,0-0.5-0.224-0.5-0.5
					S24.991,22.551,25.268,22.551z"/>
				<path style="fill:#EA5066;" d="M20.477,22.551c0.276,0,0.5,0.224,0.5,0.5s-0.224,0.5-0.5,0.5s-0.5-0.224-0.5-0.5
					S20.201,22.551,20.477,22.551z"/>
				<path style="fill:#EA5066;" d="M34.849,27.342c0.276,0,0.5,0.224,0.5,0.5c0,0.276-0.224,0.5-0.5,0.5c-0.276,0-0.5-0.224-0.5-0.5
					C34.349,27.566,34.573,27.342,34.849,27.342z"/>
				<circle style="fill:#EA5066;" cx="30.059" cy="27.842" r="0.5"/>
				<path style="fill:#EA5066;" d="M25.268,27.342c0.276,0,0.5,0.224,0.5,0.5c0,0.276-0.224,0.5-0.5,0.5c-0.276,0-0.5-0.224-0.5-0.5
					C24.767,27.566,24.991,27.342,25.268,27.342z"/>
				<path style="fill:#EA5066;" d="M20.477,27.342c0.276,0,0.5,0.224,0.5,0.5c0,0.276-0.224,0.5-0.5,0.5s-0.5-0.224-0.5-0.5
					C19.977,27.566,20.201,27.342,20.477,27.342z"/>
				<path style="fill:#EA5066;" d="M34.849,32.133c0.276,0,0.5,0.224,0.5,0.5c0,0.276-0.224,0.5-0.5,0.5c-0.276,0-0.5-0.224-0.5-0.5
					C34.349,32.357,34.573,32.133,34.849,32.133z"/>
				<circle style="fill:#EA5066;" cx="30.059" cy="32.633" r="0.5"/>
				<circle style="fill:#EA5066;" cx="25.268" cy="32.633" r="0.5"/>
				<circle style="fill:#EA5066;" cx="20.477" cy="32.633" r="0.5"/>
				<path style="fill:#EA5066;" d="M34.849,36.924c0.276,0,0.5,0.224,0.5,0.5s-0.224,0.5-0.5,0.5c-0.276,0-0.5-0.224-0.5-0.5
					S34.573,36.924,34.849,36.924z"/>
				<circle style="fill:#EA5066;" cx="30.059" cy="37.424" r="0.5"/>
				<circle style="fill:#EA5066;" cx="25.268" cy="37.424" r="0.5"/>
				<circle style="fill:#EA5066;" cx="20.477" cy="37.424" r="0.5"/>
				<path style="fill:#EA5066;" d="M34.849,41.715c0.276,0,0.5,0.224,0.5,0.5s-0.224,0.5-0.5,0.5c-0.276,0-0.5-0.224-0.5-0.5
					S34.573,41.715,34.849,41.715z"/>
				<circle style="fill:#EA5066;" cx="30.059" cy="42.215" r="0.5"/>
				<circle style="fill:#EA5066;" cx="25.268" cy="42.215" r="0.5"/>
				<path style="fill:#EA5066;" d="M20.477,41.715c0.276,0,0.5,0.224,0.5,0.5s-0.224,0.5-0.5,0.5s-0.5-0.224-0.5-0.5
					S20.201,41.715,20.477,41.715z"/>
				<path style="fill:#EA5066;" d="M34.849,46.506c0.276,0,0.5,0.224,0.5,0.5s-0.224,0.5-0.5,0.5c-0.276,0-0.5-0.224-0.5-0.5
					S34.573,46.506,34.849,46.506z"/>
				<circle style="fill:#EA5066;" cx="30.059" cy="47.006" r="0.5"/>
				<circle style="fill:#EA5066;" cx="25.268" cy="47.006" r="0.5"/>
				<path style="fill:#EA5066;" d="M20.477,46.506c0.276,0,0.5,0.224,0.5,0.5c0,0.276-0.224,0.5-0.5,0.5s-0.5-0.224-0.5-0.5
					C19.976,46.73,20.201,46.506,20.477,46.506z"/>
				<path style="fill:#EA5066;" d="M34.849,51.297c0.276,0,0.5,0.224,0.5,0.5c0,0.276-0.224,0.5-0.5,0.5c-0.276,0-0.5-0.224-0.5-0.5
					C34.349,51.521,34.573,51.297,34.849,51.297z"/>
				<circle style="fill:#EA5066;" cx="30.059" cy="51.797" r="0.5"/>
				<circle style="fill:#EA5066;" cx="25.268" cy="51.797" r="0.5"/>
				<path style="fill:#EA5066;" d="M20.477,51.297c0.276,0,0.5,0.224,0.5,0.5c0,0.276-0.224,0.5-0.5,0.5s-0.5-0.224-0.5-0.5
					C19.976,51.521,20.201,51.297,20.477,51.297z"/>
				<path style="fill:#EA5066;" d="M15.686,51.297c0.276,0,0.5,0.224,0.5,0.5c0,0.276-0.224,0.5-0.5,0.5c-0.276,0-0.5-0.224-0.5-0.5
					C15.186,51.521,15.41,51.297,15.686,51.297z"/>
				<circle style="fill:#EA5066;" cx="10.895" cy="51.797" r="0.5"/>
				<path style="fill:#EA5066;" d="M6.104,51.297c0.276,0,0.5,0.224,0.5,0.5c0,0.276-0.224,0.5-0.5,0.5c-0.276,0-0.5-0.224-0.5-0.5
					C5.604,51.521,5.828,51.297,6.104,51.297z"/>
				
					<ellipse transform="matrix(0.0195 -0.9998 0.9998 0.0195 -50.4997 52.1012)" style="fill:#EA5066;" cx="1.313" cy="51.797" rx="0.5" ry="0.5"/>
				<path style="fill:#EA5066;" d="M-3.478,51.297c0.276,0,0.5,0.224,0.5,0.5c0,0.276-0.224,0.5-0.5,0.5c-0.276,0-0.5-0.224-0.5-0.5
					C-3.978,51.521-3.754,51.297-3.478,51.297z"/>
				<path style="fill:#EA5066;" d="M-8.269,52.297c-0.276,0-0.5-0.224-0.5-0.5c0-0.276,0.224-0.5,0.5-0.5c0.276,0,0.5,0.224,0.5,0.5
					C-7.769,52.073-7.993,52.297-8.269,52.297z"/>
				<circle style="fill:#EA5066;" cx="34.849" cy="56.588" r="0.5"/>
				<circle style="fill:#EA5066;" cx="30.059" cy="56.588" r="0.5"/>
				<circle style="fill:#EA5066;" cx="25.268" cy="56.588" r="0.5"/>
				<path style="fill:#EA5066;" d="M20.477,56.088c0.276,0,0.5,0.224,0.5,0.5s-0.224,0.5-0.5,0.5s-0.5-0.224-0.5-0.5
					S20.201,56.088,20.477,56.088z"/>
				<path style="fill:#EA5066;" d="M15.686,56.088c0.276,0,0.5,0.224,0.5,0.5s-0.224,0.5-0.5,0.5c-0.276,0-0.5-0.224-0.5-0.5
					S15.41,56.088,15.686,56.088z"/>
				<circle style="fill:#EA5066;" cx="10.895" cy="56.588" r="0.5"/>
				<path style="fill:#EA5066;" d="M6.104,56.088c0.276,0,0.5,0.224,0.5,0.5s-0.224,0.5-0.5,0.5c-0.276,0-0.5-0.224-0.5-0.5
					S5.828,56.088,6.104,56.088z"/>
				<path style="fill:#EA5066;" d="M1.313,56.088c0.276,0,0.5,0.224,0.5,0.5s-0.224,0.5-0.5,0.5c-0.276,0-0.5-0.224-0.5-0.5
					C0.813,56.312,1.037,56.088,1.313,56.088z"/>
				<path style="fill:#EA5066;" d="M-3.478,56.088c0.276,0,0.5,0.224,0.5,0.5s-0.224,0.5-0.5,0.5c-0.276,0-0.5-0.224-0.5-0.5
					S-3.754,56.088-3.478,56.088z"/>
				<path style="fill:#EA5066;" d="M-8.269,56.088c0.276,0,0.5,0.224,0.5,0.5s-0.224,0.5-0.5,0.5c-0.276,0-0.5-0.224-0.5-0.5
					C-8.769,56.312-8.545,56.088-8.269,56.088z"/>
				<circle style="fill:#EA5066;" cx="34.849" cy="61.379" r="0.5"/>
				<circle style="fill:#EA5066;" cx="30.059" cy="61.379" r="0.5"/>
				<circle style="fill:#EA5066;" cx="25.268" cy="61.379" r="0.5"/>
				<path style="fill:#EA5066;" d="M20.477,60.879c0.276,0,0.5,0.224,0.5,0.5s-0.224,0.5-0.5,0.5s-0.5-0.224-0.5-0.5
					S20.201,60.879,20.477,60.879z"/>
				<path style="fill:#EA5066;" d="M15.686,60.879c0.276,0,0.5,0.224,0.5,0.5s-0.224,0.5-0.5,0.5c-0.276,0-0.5-0.224-0.5-0.5
					S15.41,60.879,15.686,60.879z"/>
				<circle style="fill:#EA5066;" cx="10.895" cy="61.379" r="0.5"/>
				<circle style="fill:#EA5066;" cx="6.104" cy="61.379" r="0.5"/>
				
					<ellipse transform="matrix(0.0404 -0.9992 0.9992 0.0404 -60.0686 60.2084)" style="fill:#EA5066;" cx="1.313" cy="61.379" rx="0.5" ry="0.5"/>
				<path style="fill:#EA5066;" d="M-3.478,60.879c0.276,0,0.5,0.224,0.5,0.5s-0.224,0.5-0.5,0.5c-0.276,0-0.5-0.224-0.5-0.5
					S-3.754,60.879-3.478,60.879z"/>
				<circle style="fill:#EA5066;" cx="-8.269" cy="61.379" r="0.5"/>
				<path style="fill:#EA5066;" d="M34.849,65.67c0.276,0,0.5,0.224,0.5,0.5s-0.224,0.5-0.5,0.5s-0.5-0.224-0.5-0.5
					C34.349,65.894,34.573,65.67,34.849,65.67z"/>
				<path style="fill:#EA5066;" d="M30.059,65.67c0.276,0,0.5,0.224,0.5,0.5c0,0.276-0.224,0.5-0.5,0.5s-0.5-0.224-0.5-0.5
					C29.558,65.894,29.782,65.67,30.059,65.67z"/>
				<path style="fill:#EA5066;" d="M25.268,65.67c0.276,0,0.5,0.224,0.5,0.5c0,0.276-0.224,0.5-0.5,0.5c-0.276,0-0.5-0.224-0.5-0.5
					C24.767,65.894,24.991,65.67,25.268,65.67z"/>
				<path style="fill:#EA5066;" d="M20.477,65.67c0.276,0,0.5,0.224,0.5,0.5c0,0.276-0.224,0.5-0.5,0.5c-0.276,0-0.5-0.224-0.5-0.5
					C19.976,65.894,20.201,65.67,20.477,65.67z"/>
				<path style="fill:#EA5066;" d="M15.686,65.67c0.276,0,0.5,0.224,0.5,0.5c0,0.276-0.224,0.5-0.5,0.5c-0.276,0-0.5-0.224-0.5-0.5
					C15.186,65.894,15.41,65.67,15.686,65.67z"/>
				<path style="fill:#EA5066;" d="M10.895,65.67c0.276,0,0.5,0.224,0.5,0.5c0,0.276-0.224,0.5-0.5,0.5c-0.276,0-0.5-0.224-0.5-0.5
					C10.395,65.893,10.619,65.67,10.895,65.67z"/>
				<path style="fill:#EA5066;" d="M6.104,65.67c0.276,0,0.5,0.224,0.5,0.5c0,0.276-0.224,0.5-0.5,0.5c-0.276,0-0.5-0.224-0.5-0.5
					C5.604,65.893,5.828,65.67,6.104,65.67z"/>
				
					<ellipse transform="matrix(0.0195 -0.9998 0.9998 0.0195 -64.8696 66.1941)" style="fill:#EA5066;" cx="1.313" cy="66.17" rx="0.5" ry="0.5"/>
				<path style="fill:#EA5066;" d="M-3.478,65.67c0.276,0,0.5,0.224,0.5,0.5c0,0.276-0.224,0.5-0.5,0.5c-0.276,0-0.5-0.224-0.5-0.5
					C-3.978,65.893-3.754,65.67-3.478,65.67z"/>
				<path style="fill:#EA5066;" d="M-8.269,65.67c0.276,0,0.5,0.224,0.5,0.5s-0.224,0.5-0.5,0.5c-0.276,0-0.5-0.224-0.5-0.5
					S-8.545,65.67-8.269,65.67z"/>
			</g>
			<g>
				<circle style="fill:#EA5066;" cx="466.364" cy="342.178" r="0.5"/>
				<circle style="fill:#EA5066;" cx="471.154" cy="342.178" r="0.5"/>
				<path style="fill:#EA5066;" d="M475.945,342.678c-0.276,0-0.5-0.224-0.5-0.5c0-0.276,0.224-0.5,0.5-0.5
					c0.276,0,0.5,0.224,0.5,0.5C476.446,342.454,476.222,342.678,475.945,342.678z"/>
				<circle style="fill:#EA5066;" cx="480.736" cy="342.178" r="0.5"/>
				<circle style="fill:#EA5066;" cx="466.364" cy="337.387" r="0.5"/>
				<circle style="fill:#EA5066;" cx="471.154" cy="337.387" r="0.5"/>
				<path style="fill:#EA5066;" d="M475.945,337.887c-0.276,0-0.5-0.224-0.5-0.5c0-0.276,0.224-0.5,0.5-0.5
					c0.276,0,0.5,0.224,0.5,0.5C476.446,337.663,476.222,337.887,475.945,337.887z"/>
				<circle style="fill:#EA5066;" cx="480.736" cy="337.387" r="0.5"/>
				<circle style="fill:#EA5066;" cx="466.364" cy="332.596" r="0.5"/>
				<circle style="fill:#EA5066;" cx="471.154" cy="332.596" r="0.5"/>
				<path style="fill:#EA5066;" d="M475.945,333.096c-0.276,0-0.5-0.224-0.5-0.5c0-0.276,0.224-0.5,0.5-0.5
					c0.276,0,0.5,0.224,0.5,0.5C476.446,332.872,476.222,333.096,475.945,333.096z"/>
				<circle style="fill:#EA5066;" cx="480.736" cy="332.596" r="0.5"/>
				<path style="fill:#EA5066;" d="M466.364,328.305c-0.276,0-0.5-0.224-0.5-0.5c0-0.276,0.224-0.5,0.5-0.5
					c0.276,0,0.5,0.224,0.5,0.5C466.864,328.081,466.64,328.305,466.364,328.305z"/>
				<path style="fill:#EA5066;" d="M471.154,328.305c-0.276,0-0.5-0.224-0.5-0.5c0-0.276,0.224-0.5,0.5-0.5
					c0.276,0,0.5,0.224,0.5,0.5C471.655,328.081,471.431,328.305,471.154,328.305z"/>
				<path style="fill:#EA5066;" d="M475.945,328.305c-0.276,0-0.5-0.224-0.5-0.5c0-0.276,0.224-0.5,0.5-0.5
					c0.276,0,0.5,0.224,0.5,0.5C476.446,328.081,476.222,328.305,475.945,328.305z"/>
				<path style="fill:#EA5066;" d="M480.736,328.305c-0.276,0-0.5-0.224-0.5-0.5c0-0.276,0.224-0.5,0.5-0.5
					c0.276,0,0.5,0.224,0.5,0.5C481.236,328.081,481.013,328.305,480.736,328.305z"/>
				<circle style="fill:#EA5066;" cx="466.364" cy="323.014" r="0.5"/>
				<circle style="fill:#EA5066;" cx="471.154" cy="323.014" r="0.5"/>
				<path style="fill:#EA5066;" d="M475.945,323.514c-0.276,0-0.5-0.224-0.5-0.5c0-0.276,0.224-0.5,0.5-0.5
					c0.276,0,0.5,0.224,0.5,0.5C476.446,323.29,476.222,323.514,475.945,323.514z"/>
				<circle style="fill:#EA5066;" cx="480.736" cy="323.014" r="0.5"/>
				<circle style="fill:#EA5066;" cx="466.364" cy="318.223" r="0.5"/>
				<path style="fill:#EA5066;" d="M471.154,318.723c-0.276,0-0.5-0.224-0.5-0.5c0-0.276,0.224-0.5,0.5-0.5
					c0.276,0,0.5,0.224,0.5,0.5C471.655,318.499,471.431,318.723,471.154,318.723z"/>
				<circle style="fill:#EA5066;" cx="475.945" cy="318.223" r="0.5"/>
				<circle style="fill:#EA5066;" cx="480.736" cy="318.223" r="0.5"/>
				<path style="fill:#EA5066;" d="M466.364,313.932c-0.276,0-0.5-0.224-0.5-0.5c0-0.276,0.224-0.5,0.5-0.5
					c0.276,0,0.5,0.224,0.5,0.5C466.864,313.708,466.64,313.932,466.364,313.932z"/>
				<path style="fill:#EA5066;" d="M471.155,313.932c-0.276,0-0.5-0.224-0.5-0.5c0-0.276,0.224-0.5,0.5-0.5
					c0.276,0,0.5,0.224,0.5,0.5C471.655,313.708,471.431,313.932,471.155,313.932z"/>
				<path style="fill:#EA5066;" d="M475.945,313.932c-0.276,0-0.5-0.224-0.5-0.5c0-0.276,0.224-0.5,0.5-0.5
					c0.276,0,0.5,0.224,0.5,0.5C476.446,313.708,476.222,313.932,475.945,313.932z"/>
				<path style="fill:#EA5066;" d="M480.736,313.932c-0.276,0-0.5-0.224-0.5-0.5c0-0.276,0.224-0.5,0.5-0.5
					c0.276,0,0.5,0.224,0.5,0.5C481.236,313.708,481.013,313.932,480.736,313.932z"/>
				<circle style="fill:#EA5066;" cx="485.527" cy="313.432" r="0.5"/>
				<circle style="fill:#EA5066;" cx="490.318" cy="313.432" r="0.5"/>
				<path style="fill:#EA5066;" d="M495.109,313.932c-0.276,0-0.5-0.224-0.5-0.5c0-0.276,0.224-0.5,0.5-0.5
					c0.276,0,0.5,0.224,0.5,0.5C495.609,313.708,495.385,313.932,495.109,313.932z"/>
				<path style="fill:#EA5066;" d="M499.9,313.932c-0.276,0-0.5-0.224-0.5-0.5c0-0.276,0.224-0.5,0.5-0.5c0.276,0,0.5,0.224,0.5,0.5
					C500.4,313.708,500.176,313.932,499.9,313.932z"/>
				<path style="fill:#EA5066;" d="M504.691,313.932c-0.276,0-0.5-0.224-0.5-0.5c0-0.276,0.224-0.5,0.5-0.5
					c0.276,0,0.5,0.224,0.5,0.5C505.191,313.708,504.967,313.932,504.691,313.932z"/>
				<path style="fill:#EA5066;" d="M509.482,312.932c0.276,0,0.5,0.224,0.5,0.5c0,0.276-0.224,0.5-0.5,0.5
					c-0.276,0-0.5-0.224-0.5-0.5C508.982,313.156,509.206,312.932,509.482,312.932z"/>
				<path style="fill:#EA5066;" d="M466.364,309.141c-0.276,0-0.5-0.224-0.5-0.5c0-0.276,0.224-0.5,0.5-0.5
					c0.276,0,0.5,0.224,0.5,0.5C466.864,308.917,466.64,309.141,466.364,309.141z"/>
				<path style="fill:#EA5066;" d="M471.155,309.141c-0.276,0-0.5-0.224-0.5-0.5c0-0.276,0.224-0.5,0.5-0.5
					c0.276,0,0.5,0.224,0.5,0.5C471.655,308.917,471.431,309.141,471.155,309.141z"/>
				<path style="fill:#EA5066;" d="M475.945,309.141c-0.276,0-0.5-0.224-0.5-0.5c0-0.276,0.224-0.5,0.5-0.5
					c0.276,0,0.5,0.224,0.5,0.5C476.446,308.917,476.222,309.141,475.945,309.141z"/>
				<path style="fill:#EA5066;" d="M480.736,309.141c-0.276,0-0.5-0.224-0.5-0.5c0-0.276,0.224-0.5,0.5-0.5
					c0.276,0,0.5,0.224,0.5,0.5C481.236,308.917,481.013,309.141,480.736,309.141z"/>
				<path style="fill:#EA5066;" d="M485.527,309.141c-0.276,0-0.5-0.224-0.5-0.5c0-0.276,0.224-0.5,0.5-0.5
					c0.276,0,0.5,0.224,0.5,0.5C486.027,308.917,485.803,309.141,485.527,309.141z"/>
				<path style="fill:#EA5066;" d="M490.318,309.141c-0.276,0-0.5-0.224-0.5-0.5c0-0.276,0.224-0.5,0.5-0.5
					c0.276,0,0.5,0.224,0.5,0.5C490.818,308.917,490.594,309.141,490.318,309.141z"/>
				<path style="fill:#EA5066;" d="M495.109,309.141c-0.276,0-0.5-0.224-0.5-0.5c0-0.276,0.224-0.5,0.5-0.5
					c0.276,0,0.5,0.224,0.5,0.5C495.609,308.917,495.385,309.141,495.109,309.141z"/>
				<path style="fill:#EA5066;" d="M499.9,309.141c-0.276,0-0.5-0.224-0.5-0.5c0-0.276,0.224-0.5,0.5-0.5c0.276,0,0.5,0.224,0.5,0.5
					C500.4,308.917,500.176,309.141,499.9,309.141z"/>
				<path style="fill:#EA5066;" d="M504.691,309.141c-0.276,0-0.5-0.224-0.5-0.5c0-0.276,0.224-0.5,0.5-0.5
					c0.276,0,0.5,0.224,0.5,0.5C505.191,308.917,504.967,309.141,504.691,309.141z"/>
				<path style="fill:#EA5066;" d="M509.482,309.141c-0.276,0-0.5-0.224-0.5-0.5c0-0.276,0.224-0.5,0.5-0.5
					c0.276,0,0.5,0.224,0.5,0.5C509.982,308.917,509.758,309.141,509.482,309.141z"/>
				<circle style="fill:#EA5066;" cx="466.364" cy="303.85" r="0.5"/>
				<path style="fill:#EA5066;" d="M471.155,304.35c-0.276,0-0.5-0.224-0.5-0.5c0-0.276,0.224-0.5,0.5-0.5
					c0.276,0,0.5,0.224,0.5,0.5C471.655,304.126,471.431,304.35,471.155,304.35z"/>
				<circle style="fill:#EA5066;" cx="475.945" cy="303.85" r="0.5"/>
				<circle style="fill:#EA5066;" cx="480.736" cy="303.85" r="0.5"/>
				<circle style="fill:#EA5066;" cx="485.527" cy="303.85" r="0.5"/>
				<path style="fill:#EA5066;" d="M490.318,304.35c-0.276,0-0.5-0.224-0.5-0.5c0-0.276,0.224-0.5,0.5-0.5
					c0.276,0,0.5,0.224,0.5,0.5C490.818,304.126,490.594,304.35,490.318,304.35z"/>
				<path style="fill:#EA5066;" d="M495.109,304.35c-0.276,0-0.5-0.224-0.5-0.5c0-0.276,0.224-0.5,0.5-0.5
					c0.276,0,0.5,0.224,0.5,0.5C495.609,304.126,495.385,304.35,495.109,304.35z"/>
				<path style="fill:#EA5066;" d="M499.9,304.35c-0.276,0-0.5-0.224-0.5-0.5c0-0.276,0.224-0.5,0.5-0.5c0.276,0,0.5,0.224,0.5,0.5
					C500.4,304.126,500.176,304.35,499.9,304.35z"/>
				<path style="fill:#EA5066;" d="M504.691,304.35c-0.276,0-0.5-0.224-0.5-0.5c0-0.276,0.224-0.5,0.5-0.5
					c0.276,0,0.5,0.224,0.5,0.5C505.191,304.126,504.967,304.35,504.691,304.35z"/>
				<path style="fill:#EA5066;" d="M509.482,304.35c-0.276,0-0.5-0.224-0.5-0.5c0-0.276,0.224-0.5,0.5-0.5
					c0.276,0,0.5,0.224,0.5,0.5C509.982,304.126,509.758,304.35,509.482,304.35z"/>
				<circle style="fill:#EA5066;" cx="466.364" cy="299.059" r="0.5"/>
				<path style="fill:#EA5066;" d="M471.155,299.559c-0.276,0-0.5-0.224-0.5-0.5c0-0.276,0.224-0.5,0.5-0.5
					c0.276,0,0.5,0.224,0.5,0.5C471.655,299.336,471.431,299.559,471.155,299.559z"/>
				<circle style="fill:#EA5066;" cx="475.945" cy="299.059" r="0.5"/>
				<circle style="fill:#EA5066;" cx="480.736" cy="299.059" r="0.5"/>
				<circle style="fill:#EA5066;" cx="485.527" cy="299.059" r="0.5"/>
				<circle style="fill:#EA5066;" cx="490.318" cy="299.059" r="0.5"/>
				<path style="fill:#EA5066;" d="M495.109,299.559c-0.276,0-0.5-0.224-0.5-0.5c0-0.276,0.224-0.5,0.5-0.5
					c0.276,0,0.5,0.224,0.5,0.5C495.609,299.336,495.385,299.559,495.109,299.559z"/>
				<path style="fill:#EA5066;" d="M499.9,299.559c-0.276,0-0.5-0.224-0.5-0.5c0-0.276,0.224-0.5,0.5-0.5c0.276,0,0.5,0.224,0.5,0.5
					C500.4,299.336,500.176,299.559,499.9,299.559z"/>
				<path style="fill:#EA5066;" d="M504.691,299.559c-0.276,0-0.5-0.224-0.5-0.5c0-0.276,0.224-0.5,0.5-0.5
					c0.276,0,0.5,0.224,0.5,0.5C505.191,299.336,504.967,299.559,504.691,299.559z"/>
				<path style="fill:#EA5066;" d="M509.482,299.559c-0.276,0-0.5-0.224-0.5-0.5c0-0.276,0.224-0.5,0.5-0.5
					c0.276,0,0.5,0.224,0.5,0.5C509.982,299.336,509.758,299.559,509.482,299.559z"/>
			</g>
		</g>
		<g style="clip-path:url(#SVGID_00000147903406760559882370000010753100102136845998_);">
			<g>
				<polygon style="fill:#012840;" points="307.285,149.272 320.541,157.732 320.809,157.31 307.285,148.679 293.76,157.31 
					294.028,157.732 				"/>
				<polygon style="fill:#012840;" points="293.76,163.101 294.028,163.523 307.285,155.063 320.541,163.523 320.809,163.101 
					307.285,154.47 				"/>
				<polygon style="fill:#012840;" points="293.76,168.892 294.028,169.314 307.285,160.854 320.541,169.314 320.809,168.892 
					307.285,160.261 				"/>
			</g>
			<g>
				<polygon style="fill:#012840;" points="497.58,15.043 484.323,6.584 484.055,7.006 497.58,15.636 511.104,7.006 510.836,6.584 
									"/>
				<polygon style="fill:#012840;" points="511.104,1.215 510.836,0.793 497.58,9.253 484.323,0.793 484.055,1.215 497.58,9.846 
									"/>
				<polygon style="fill:#012840;" points="511.104,-4.576 510.836,-4.998 497.58,3.462 484.323,-4.998 484.055,-4.576 
					497.58,4.055 				"/>
			</g>
			<g>
				<polygon style="fill:#012840;" points="742.848,325.732 756.105,334.191 756.373,333.769 742.848,325.139 729.323,333.769 
					729.592,334.191 				"/>
				<polygon style="fill:#012840;" points="729.323,339.56 729.592,339.982 742.848,331.522 756.105,339.982 756.373,339.56 
					742.848,330.93 				"/>
				<polygon style="fill:#012840;" points="729.323,345.352 729.592,345.773 742.848,337.313 756.105,345.773 756.373,345.352 
					742.848,336.721 				"/>
			</g>
			<g>
				<polygon style="fill:#012840;" points="742.848,57.71 756.105,66.17 756.373,65.748 742.848,57.117 729.323,65.748 
					729.592,66.17 				"/>
				<polygon style="fill:#012840;" points="729.323,71.539 729.592,71.961 742.848,63.501 756.105,71.961 756.373,71.539 
					742.848,62.908 				"/>
				<polygon style="fill:#012840;" points="729.323,77.33 729.592,77.752 742.848,69.292 756.105,77.752 756.373,77.33 
					742.848,68.699 				"/>
			</g>
			<g>
				<polygon style="fill:#012840;" points="9.347,86.358 22.604,94.818 22.872,94.396 9.347,85.766 -4.178,94.396 -3.909,94.818 
									"/>
				<polygon style="fill:#012840;" points="-4.178,100.187 -3.909,100.609 9.347,92.149 22.604,100.609 22.872,100.187 
					9.347,91.556 				"/>
				<polygon style="fill:#012840;" points="-4.178,105.978 -3.909,106.4 9.347,97.94 22.604,106.4 22.872,105.978 9.347,97.347 				
					"/>
			</g>
			<g>
				<polygon style="fill:#012840;" points="122.938,400.126 109.682,391.667 109.413,392.089 122.938,400.719 136.463,392.089 
					136.195,391.667 				"/>
				<polygon style="fill:#012840;" points="136.463,386.298 136.195,385.876 122.938,394.336 109.682,385.876 109.413,386.298 
					122.938,394.929 				"/>
				<polygon style="fill:#012840;" points="136.463,380.507 136.195,380.085 122.938,388.545 109.682,380.085 109.413,380.507 
					122.938,389.138 				"/>
			</g>
			<g>
				<polygon style="fill:#012840;" points="573.602,455.22 586.858,463.679 587.127,463.257 573.602,454.627 560.077,463.257 
					560.345,463.679 				"/>
				<polygon style="fill:#012840;" points="560.077,469.048 560.345,469.47 573.602,461.01 586.858,469.47 587.127,469.048 
					573.602,460.418 				"/>
				<polygon style="fill:#012840;" points="560.077,474.839 560.345,475.261 573.602,466.801 586.858,475.261 587.127,474.839 
					573.602,466.208 				"/>
			</g>
		</g>
		<g style="clip-path:url(#SVGID_00000147903406760559882370000010753100102136845998_);">
			<g>
				<rect x="244.948" y="404.006" style="fill:#012840;" width="88.495" height="0.559"/>
				<rect x="244.948" y="410.437" style="fill:#012840;" width="88.495" height="0.559"/>
				<rect x="244.948" y="416.867" style="fill:#012840;" width="88.495" height="0.559"/>
			</g>
			<g>
				<rect x="-65.894" y="478.409" style="fill:#012840;" width="88.495" height="0.559"/>
				<rect x="-65.894" y="484.84" style="fill:#012840;" width="88.495" height="0.559"/>
				<rect x="-65.894" y="491.271" style="fill:#012840;" width="88.495" height="0.559"/>
			</g>
			<g>
				<rect x="349.175" y="24.95" style="fill:#012840;" width="88.495" height="0.559"/>
				<rect x="349.175" y="31.381" style="fill:#012840;" width="88.495" height="0.559"/>
				<rect x="349.175" y="37.812" style="fill:#012840;" width="88.495" height="0.559"/>
			</g>
			<g>
				<rect x="684.844" y="207.472" style="fill:#012840;" width="88.495" height="0.559"/>
				<rect x="684.844" y="213.903" style="fill:#012840;" width="88.495" height="0.559"/>
				<rect x="684.844" y="220.334" style="fill:#012840;" width="88.495" height="0.559"/>
			</g>
			<g>
				<rect x="52.162" y="113.205" style="fill:#012840;" width="88.495" height="0.559"/>
				<rect x="52.162" y="119.635" style="fill:#012840;" width="88.495" height="0.559"/>
				<rect x="52.162" y="126.066" style="fill:#012840;" width="88.495" height="0.559"/>
			</g>
		</g>
		<g style="clip-path:url(#SVGID_00000147903406760559882370000010753100102136845998_);">
			<path style="fill:#012840;" d="M105.356,230.704H53.54c-1.611,0-2.917,1.306-2.917,2.917l0,0c0,1.611,1.306,2.917,2.917,2.917
				h51.816c1.611,0,2.917-1.306,2.917-2.917l0,0C108.273,232.01,106.967,230.704,105.356,230.704z"/>
			<path style="fill:#012840;" d="M780.216,19.371H728.4c-1.611,0-2.917,1.306-2.917,2.917l0,0c0,1.611,1.306,2.917,2.917,2.917
				h51.816c1.611,0,2.917-1.306,2.917-2.917l0,0C783.133,20.677,781.827,19.371,780.216,19.371z"/>
			<path style="fill:#012840;" d="M545.692,442.49h-51.816c-1.611,0-2.917,1.306-2.917,2.917l0,0c0,1.611,1.306,2.917,2.917,2.917
				h51.816c1.611,0,2.917-1.306,2.917-2.917l0,0C548.609,443.796,547.303,442.49,545.692,442.49z"/>
			<path style="fill:#77C0F2;" d="M628.423,208.002h-51.816c-1.611,0-2.917,1.306-2.917,2.917l0,0c0,1.611,1.306,2.917,2.917,2.917
				h51.816c1.611,0,2.917-1.306,2.917-2.917l0,0C631.34,209.308,630.034,208.002,628.423,208.002z"/>
			<path style="fill:#EA5066;" d="M365.728,44.685h-51.816c-1.611,0-2.917,1.306-2.917,2.917l0,0c0,1.611,1.306,2.917,2.917,2.917
				h51.816c1.611,0,2.917-1.306,2.917-2.917l0,0C368.645,45.99,367.339,44.685,365.728,44.685z"/>
			<path style="fill:#012840;" d="M37.231,7.379h-51.816c-1.611,0-2.917,1.306-2.917,2.917l0,0c0,1.611,1.306,2.917,2.917,2.917
				h51.816c1.611,0,2.917-1.306,2.917-2.917l0,0C40.148,8.685,38.842,7.379,37.231,7.379z"/>
			<path style="fill:#77C0F2;" d="M360.803,387.651h-51.816c-1.611,0-2.917,1.306-2.917,2.917v0c0,1.611,1.306,2.917,2.917,2.917
				h51.816c1.611,0,2.917-1.306,2.917-2.917v0C363.72,388.956,362.414,387.651,360.803,387.651z"/>
			<path style="fill:#77C0F2;" d="M775.908,452.414h-51.816c-1.611,0-2.917,1.306-2.917,2.917l0,0c0,1.611,1.306,2.917,2.917,2.917
				h51.816c1.611,0,2.917-1.306,2.917-2.917l0,0C778.825,453.72,777.519,452.414,775.908,452.414z"/>
			<path style="fill:#EA5066;" d="M86.346,458.247H34.53c-1.611,0-2.917,1.306-2.917,2.917l0,0c0,1.611,1.306,2.917,2.917,2.917
				h51.816c1.611,0,2.917-1.306,2.917-2.917l0,0C89.263,459.553,87.957,458.247,86.346,458.247z"/>
		</g>
	</g>
</g>
</svg>
