<?xml version="1.0" encoding="utf-8"?>
<!-- Generator: Adobe Illustrator 27.5.0, SVG Export Plug-In . SVG Version: 6.00 Build 0)  -->
<svg version="1.1" id="Layer_1" xmlns="http://www.w3.org/2000/svg" xmlns:xlink="http://www.w3.org/1999/xlink" x="0px" y="0px"
	 viewBox="0 0 5000 2916" style="enable-background:new 0 0 5000 2916;" xml:space="preserve">
<g>
	<rect style="fill-rule:evenodd;clip-rule:evenodd;fill:#FFFFFF;" width="5000" height="2916"/>
	<defs>
		<filter id="Adobe_OpacityMaskFilter" filterUnits="userSpaceOnUse" x="0" y="0" width="5000" height="1566.15">
			<feColorMatrix  type="matrix" values="1 0 0 0 0  0 1 0 0 0  0 0 1 0 0  0 0 0 1 0"/>
		</filter>
	</defs>
	<mask maskUnits="userSpaceOnUse" x="0" y="0" width="5000" height="1566.15" id="SVGID_1_">
		<g style="filter:url(#Adobe_OpacityMaskFilter);">
			
				<linearGradient id="SVGID_00000041977638357631509860000012529524664954317212_" gradientUnits="userSpaceOnUse" x1="-6768.1865" y1="2730.6853" x2="-108.1874" y2="300.692" gradientTransform="matrix(1 0 0 1 5075.1582 -417.7253)">
				<stop  offset="0" style="stop-color:#FFFFFF"/>
				<stop  offset="1" style="stop-color:#000000"/>
			</linearGradient>
			<rect style="fill:url(#SVGID_00000041977638357631509860000012529524664954317212_);" width="5000" height="1566.151"/>
		</g>
	</mask>
	<path style="mask:url(#SVGID_1_);fill-rule:evenodd;clip-rule:evenodd;fill:#B4C4C5;" d="M3133.133,884.692
		c0-537.872,817.734-530.537,1866.867-184.827V0H0v1166.003c274.174-189.44,637.358-256.256,1116.973-72.206
		C2797.107,1738.541,3133.133,1773.393,3133.133,884.692"/>
	<defs>
		
			<filter id="Adobe_OpacityMaskFilter_00000039821156428494410620000010187556640527857297_" filterUnits="userSpaceOnUse" x="0" y="1701.012" width="5000" height="1214.988">
			<feColorMatrix  type="matrix" values="1 0 0 0 0  0 1 0 0 0  0 0 1 0 0  0 0 0 1 0"/>
		</filter>
	</defs>
	
		<mask maskUnits="userSpaceOnUse" x="0" y="1701.012" width="5000" height="1214.988" id="SVGID_00000118373930189769513900000016524900745451562375_">
		<g style="filter:url(#Adobe_OpacityMaskFilter_00000039821156428494410620000010187556640527857297_);">
			
				<linearGradient id="SVGID_00000170964476772104228190000003371580748105263786_" gradientUnits="userSpaceOnUse" x1="4664.4375" y1="841.527" x2="-5205.5532" y2="2841.51" gradientTransform="matrix(1 0 0 1 5075.1582 0)">
				<stop  offset="0" style="stop-color:#FFFFFF"/>
				<stop  offset="1" style="stop-color:#000000"/>
			</linearGradient>
			
				<rect y="1701.012" style="fill:url(#SVGID_00000170964476772104228190000003371580748105263786_);" width="5000" height="1214.988"/>
		</g>
	</mask>
	
		<path style="mask:url(#SVGID_00000118373930189769513900000016524900745451562375_);fill-rule:evenodd;clip-rule:evenodd;fill:#B4C4C5;" d="
		M3250.714,2128.139c0,888.701-381.051,853.849-2286.323,209.105C580.928,2207.479,263.096,2202.419,0,2277.116V2916h5000V1845.257
		C3992.322,1602.144,3250.714,1647.128,3250.714,2128.139"/>
	<defs>
		
			<filter id="Adobe_OpacityMaskFilter_00000076569070494801410640000015457658658070485905_" filterUnits="userSpaceOnUse" x="0" y="0" width="4710" height="1126.151">
			<feColorMatrix  type="matrix" values="1 0 0 0 0  0 1 0 0 0  0 0 1 0 0  0 0 0 1 0"/>
		</filter>
	</defs>
	
		<mask maskUnits="userSpaceOnUse" x="0" y="0" width="4710" height="1126.151" id="SVGID_00000007422184889195248280000012355969294234618535_">
		<g style="filter:url(#Adobe_OpacityMaskFilter_00000076569070494801410640000015457658658070485905_);">
			
				<linearGradient id="SVGID_00000134969797085855265670000013679531782648756915_" gradientUnits="userSpaceOnUse" x1="-6970.3027" y1="2667.6875" x2="-310.3114" y2="237.6971" gradientTransform="matrix(1 0 0 1 5075.1582 -553.8878)">
				<stop  offset="0" style="stop-color:#FFFFFF"/>
				<stop  offset="1" style="stop-color:#000000"/>
			</linearGradient>
			<rect y="0" style="fill:url(#SVGID_00000134969797085855265670000013679531782648756915_);" width="4710" height="1126.152"/>
		</g>
	</mask>
	
		<path style="mask:url(#SVGID_00000007422184889195248280000012355969294234618535_);fill-rule:evenodd;clip-rule:evenodd;fill:#B4C4C5;" d="
		M2843.131,444.693c0-537.874,817.736-530.537,1866.869-184.828V0H0v586.472c227.379-66.993,500.133-58.099,826.972,67.325
		C2507.107,1298.542,2843.131,1333.394,2843.131,444.693"/>
	<defs>
		
			<filter id="Adobe_OpacityMaskFilter_00000179628434000572493040000009048804956672559245_" filterUnits="userSpaceOnUse" x="420" y="1991.05" width="4580" height="924.95">
			<feColorMatrix  type="matrix" values="1 0 0 0 0  0 1 0 0 0  0 0 1 0 0  0 0 0 1 0"/>
		</filter>
	</defs>
	
		<mask maskUnits="userSpaceOnUse" x="420" y="1991.05" width="4580" height="924.95" id="SVGID_00000070829027367512080510000013138384663336997526_">
		<g style="filter:url(#Adobe_OpacityMaskFilter_00000179628434000572493040000009048804956672559245_);">
			
				<linearGradient id="SVGID_00000031195841955672372340000006795356932569943443_" gradientUnits="userSpaceOnUse" x1="4917.9468" y1="951.3928" x2="-4952.0684" y2="2951.3806" gradientTransform="matrix(1 0 0 1 5205.1318 0)">
				<stop  offset="0" style="stop-color:#FFFFFF"/>
				<stop  offset="1" style="stop-color:#000000"/>
			</linearGradient>
			
				<rect x="420" y="1991.05" style="fill:url(#SVGID_00000031195841955672372340000006795356932569943443_);" width="4580" height="924.95"/>
		</g>
	</mask>
	
		<path style="mask:url(#SVGID_00000070829027367512080510000013138384663336997526_);fill-rule:evenodd;clip-rule:evenodd;fill:#B4C4C5;" d="
		M2277.64,2916c-252.187-74.956-547.507-171.757-893.25-288.756C1000.928,2497.48,683.097,2492.42,420,2567.117V2916H2277.64z
		 M3670.714,2418.139c0,221.918-23.769,386.237-89.09,497.861H5000v-867.818C4212.923,1914.399,3670.714,2006.865,3670.714,2418.139
		z"/>
	<path d="M724.586,233.168v-8.554h-34.935v8.554h12.829v33.608h9.276v-33.608H724.586z M667.186,259.969l-5.903-5.962
		c-1.647,1.526-3.303,2.729-4.969,3.613c-1.666,0.884-3.703,1.326-6.114,1.326c-1.805,0-3.463-0.352-4.967-1.054
		c-1.507-0.703-2.793-1.656-3.856-2.861c-1.064-1.205-1.897-2.61-2.499-4.216c-0.603-1.606-0.904-3.312-0.904-5.118v-0.121
		c0-1.806,0.301-3.504,0.904-5.09c0.603-1.586,1.445-2.981,2.529-4.187c1.084-1.203,2.379-2.147,3.885-2.83
		c1.507-0.683,3.143-1.024,4.909-1.024c2.128,0,4.046,0.422,5.753,1.265c1.707,0.843,3.383,2.008,5.029,3.493l5.903-6.807
		c-0.964-0.964-2.007-1.847-3.132-2.65c-1.125-0.802-2.348-1.485-3.673-2.047c-1.325-0.563-2.802-1.004-4.427-1.325
		c-1.625-0.321-3.422-0.483-5.39-0.483c-3.253,0-6.225,0.573-8.915,1.716c-2.69,1.145-5,2.711-6.927,4.698
		c-1.928,1.988-3.433,4.297-4.517,6.927c-1.084,2.63-1.625,5.451-1.625,8.463v0.12c0,3.011,0.541,5.843,1.625,8.493
		c1.084,2.65,2.589,4.948,4.517,6.896c1.927,1.947,4.216,3.483,6.867,4.608c2.651,1.124,5.521,1.687,8.612,1.687
		c2.048,0,3.896-0.17,5.543-0.512c1.646-0.341,3.162-0.844,4.547-1.506c1.385-0.662,2.659-1.455,3.825-2.379
		C664.977,262.179,666.102,261.135,667.186,259.969z M588.705,249.128h-11.204l5.603-13.672L588.705,249.128z M605.571,266.776
		l-18.07-42.463h-8.553l-18.068,42.463h9.455l3.855-9.456h17.828l3.855,9.456H605.571z M528.654,239.13
		c0,1.808-0.612,3.253-1.835,4.337c-1.226,1.084-2.982,1.626-5.27,1.626h-9.398v-12.107h9.216c2.288,0,4.076,0.502,5.36,1.506
		c1.284,1.004,1.927,2.51,1.927,4.518V239.13z M539.315,266.776l-10.299-15.058c2.69-1.003,4.868-2.58,6.535-4.728
		c1.666-2.148,2.499-4.929,2.499-8.342v-0.12c0-4.377-1.395-7.791-4.188-10.239c-2.79-2.45-6.695-3.675-11.714-3.675h-19.273v42.162
		h9.275v-13.491h7.288l9.035,13.491H539.315z M477.699,233.168v-8.554h-34.934v8.554h12.829v33.608h9.275v-33.608H477.699z
		 M419.637,254.309v-0.121c0-1.847-0.292-3.434-0.873-4.759c-0.584-1.325-1.456-2.479-2.6-3.463
		c-1.145-0.984-2.559-1.827-4.227-2.53c-1.666-0.703-3.574-1.335-5.712-1.898c-1.807-0.482-3.302-0.903-4.497-1.265
		c-1.185-0.361-2.117-0.742-2.81-1.144c-0.683-0.401-1.155-0.853-1.415-1.355c-0.262-0.501-0.393-1.094-0.393-1.776v-0.12
		c0-1.044,0.453-1.918,1.355-2.621c0.904-0.702,2.259-1.053,4.066-1.053c1.807,0,3.613,0.371,5.42,1.114
		c1.808,0.743,3.654,1.757,5.541,3.041l4.819-6.986c-2.168-1.727-4.547-3.051-7.137-3.975c-2.591-0.924-5.431-1.386-8.523-1.386
		c-2.168,0-4.156,0.301-5.952,0.903c-1.797,0.602-3.354,1.466-4.648,2.59c-1.295,1.125-2.299,2.459-3.023,4.006
		c-0.712,1.546-1.073,3.283-1.073,5.21v0.121c0,2.087,0.331,3.834,0.994,5.239c0.663,1.406,1.606,2.581,2.81,3.524
		c1.204,0.944,2.679,1.737,4.407,2.379c1.736,0.643,3.664,1.225,5.802,1.748c1.767,0.441,3.213,0.863,4.317,1.264
		c1.104,0.402,1.967,0.802,2.6,1.205c0.622,0.402,1.045,0.833,1.266,1.295c0.219,0.462,0.331,0.994,0.331,1.596v0.121
		c0,1.245-0.532,2.219-1.597,2.921c-1.063,0.703-2.559,1.054-4.487,1.054c-2.409,0-4.628-0.462-6.655-1.386
		c-2.027-0.924-4.006-2.168-5.933-3.735l-5.481,6.565c2.529,2.289,5.341,3.986,8.432,5.09c3.093,1.104,6.245,1.656,9.458,1.656
		c2.289,0,4.377-0.292,6.253-0.873c1.878-0.582,3.504-1.426,4.858-2.53c1.355-1.104,2.411-2.469,3.173-4.095
		C419.256,258.253,419.637,256.396,419.637,254.309z M354.226,254.067c0,1.566-0.582,2.722-1.747,3.464
		c-1.164,0.743-2.771,1.114-4.819,1.114h-11.023v-9.275h10.721c2.411,0,4.158,0.411,5.24,1.234c1.086,0.823,1.627,1.938,1.627,3.343
		V254.067z M351.878,237.202c0,1.566-0.603,2.701-1.807,3.403c-1.206,0.704-2.831,1.054-4.879,1.054h-8.555v-8.915h9.156
		c1.968,0,3.473,0.372,4.517,1.114c1.043,0.744,1.567,1.817,1.567,3.223V237.202z M363.383,255.212v-0.121
		c0-2.81-0.702-5.009-2.099-6.595c-1.395-1.585-3.323-2.84-5.751-3.764c0.753-0.402,1.464-0.884,2.117-1.446
		c0.663-0.562,1.236-1.215,1.737-1.957c0.502-0.744,0.893-1.576,1.194-2.5c0.301-0.923,0.451-1.988,0.451-3.193v-0.12
		c0-3.333-1.235-5.983-3.694-7.951c-2.469-1.968-5.863-2.951-10.19-2.951h-19.545v42.162h20.028c2.357,0,4.516-0.241,6.463-0.723
		c1.939-0.483,3.605-1.205,4.989-2.168c1.376-0.965,2.441-2.169,3.184-3.613C363.01,258.826,363.383,257.139,363.383,255.212z
		 M286.166,249.128h-11.204l5.603-13.672L286.166,249.128z M303.031,266.776l-18.071-42.463h-8.552l-18.07,42.463h9.456l3.855-9.456
		h17.828l3.856,9.456H303.031z"/>
	<path d="M1003.027,332.558c0,2.318-0.382,4.414-1.146,6.289c-0.765,1.873-1.826,3.501-3.181,4.882
		c-1.357,1.381-2.996,2.441-4.92,3.181c-1.923,0.74-4.044,1.109-6.362,1.109h-8.803v-31.216h8.803c2.318,0,4.438,0.382,6.362,1.146
		c1.923,0.765,3.563,1.837,4.92,3.218c1.355,1.382,2.416,3.034,3.181,4.957c0.764,1.923,1.146,4.019,1.146,6.288V332.558z
		 M1014.937,332.41v-0.148c0-3.649-0.666-7.039-1.997-10.17c-1.33-3.133-3.217-5.857-5.658-8.174
		c-2.441-2.319-5.351-4.13-8.729-5.438c-3.378-1.307-7.089-1.961-11.133-1.961h-20.195v51.782h20.195
		c4.044,0,7.755-0.666,11.133-1.998c3.378-1.331,6.288-3.155,8.729-5.473c2.441-2.318,4.328-5.055,5.658-8.211
		C1014.271,339.462,1014.937,336.059,1014.937,332.41z M932.604,358.301v-51.782h-11.244v31.884l-24.264-31.884h-10.504v51.782
		h11.244v-32.918l25.078,32.918H932.604z M852.788,335.739v-29.22h-11.392v29.664c0,4.143-0.986,7.25-2.96,9.321
		c-1.972,2.071-4.708,3.107-8.211,3.107c-3.501,0-6.237-1.073-8.211-3.218c-1.972-2.146-2.958-5.339-2.958-9.581v-29.294h-11.391
		v29.591c0,7.644,1.996,13.389,5.991,17.235c3.995,3.847,9.469,5.77,16.422,5.77c3.452,0,6.583-0.481,9.394-1.443
		c2.81-0.961,5.202-2.415,7.174-4.364c1.972-1.948,3.49-4.377,4.551-7.287C852.258,343.112,852.788,339.684,852.788,335.739z
		 M764.24,332.558c0,2.22-0.382,4.303-1.147,6.251c-0.764,1.948-1.824,3.662-3.181,5.141c-1.355,1.479-2.996,2.638-4.918,3.477
		c-1.923,0.838-4.02,1.257-6.288,1.257c-2.318,0-4.427-0.431-6.326-1.294c-1.898-0.864-3.55-2.035-4.956-3.514
		c-1.404-1.479-2.49-3.205-3.255-5.178c-0.764-1.973-1.146-4.068-1.146-6.287v-0.148c0-2.219,0.382-4.303,1.146-6.25
		c0.765-1.949,1.826-3.662,3.181-5.142c1.357-1.479,2.985-2.638,4.882-3.476c1.9-0.838,4.008-1.258,6.326-1.258
		c2.267,0,4.364,0.431,6.288,1.294c1.923,0.863,3.588,2.034,4.994,3.514c1.404,1.48,2.49,3.206,3.253,5.178
		c0.765,1.973,1.147,4.069,1.147,6.288V332.558z M776.15,332.41v-0.148c0-3.699-0.679-7.162-2.034-10.393
		c-1.357-3.231-3.255-6.041-5.696-8.433c-2.441-2.392-5.338-4.289-8.691-5.696c-3.354-1.406-7.029-2.109-11.023-2.109
		c-3.995,0-7.681,0.703-11.059,2.109c-3.378,1.406-6.288,3.329-8.729,5.77c-2.441,2.441-4.353,5.277-5.734,8.507
		c-1.381,3.23-2.072,6.695-2.072,10.394v0.147c0,3.699,0.679,7.163,2.035,10.394c1.355,3.23,3.255,6.041,5.696,8.433
		c2.441,2.392,5.338,4.291,8.691,5.696c3.355,1.406,7.028,2.108,11.023,2.108s7.681-0.702,11.059-2.108
		c3.378-1.405,6.288-3.329,8.729-5.77c2.441-2.441,4.352-5.277,5.732-8.507C775.459,339.573,776.15,336.109,776.15,332.41z
		 M679.393,324.347c0,2.219-0.753,3.994-2.256,5.326c-1.504,1.331-3.662,1.997-6.472,1.997h-11.54v-14.868h11.318
		c2.812,0,5.007,0.617,6.583,1.848c1.578,1.234,2.368,3.082,2.368,5.549V324.347z M692.486,358.301l-12.648-18.494
		c3.302-1.233,5.979-3.167,8.025-5.806c2.047-2.638,3.07-6.054,3.07-10.244v-0.149c0-5.375-1.715-9.567-5.142-12.575
		c-3.427-3.008-8.224-4.513-14.387-4.513h-23.672v51.782h11.392v-16.569h8.949l11.097,16.569H692.486z M614.593,350.977v-22.489
		h-22.489v9.839h11.466v7.447c-2.91,2.084-6.485,3.131-10.726,3.131c-2.318,0-4.426-0.406-6.326-1.22
		c-1.898-0.813-3.55-1.973-4.956-3.452c-1.404-1.478-2.49-3.218-3.255-5.227c-0.764-1.998-1.146-4.193-1.146-6.559v-0.148
		c0-2.219,0.382-4.315,1.146-6.264c0.765-1.96,1.826-3.661,3.181-5.117c1.357-1.455,2.935-2.626,4.735-3.489
		c1.8-0.863,3.736-1.294,5.806-1.294c1.48,0,2.835,0.124,4.069,0.37c1.232,0.247,2.379,0.591,3.44,1.035
		c1.06,0.444,2.083,0.986,3.069,1.628c0.988,0.641,1.974,1.381,2.96,2.219l7.176-8.655c-1.332-1.134-2.714-2.145-4.143-3.033
		c-1.431-0.888-2.958-1.628-4.587-2.219c-1.627-0.593-3.391-1.048-5.289-1.369c-1.898-0.32-4.006-0.481-6.324-0.481
		c-3.945,0-7.57,0.703-10.875,2.109c-3.304,1.406-6.165,3.329-8.58,5.77c-2.416,2.441-4.304,5.277-5.66,8.507
		c-1.355,3.23-2.034,6.695-2.034,10.394v0.147c0,3.847,0.664,7.398,1.998,10.652c1.33,3.255,3.192,6.067,5.586,8.433
		c2.391,2.367,5.251,4.216,8.58,5.548c3.328,1.331,7.013,1.997,11.059,1.997c4.734,0,8.937-0.801,12.612-2.404
		C608.761,355.182,611.93,353.245,614.593,350.977z M538.474,358.301l-22.046-29.812l21.082-21.97h-13.757l-21.009,22.636v-22.636
		h-11.392v51.782h11.392v-15.83l5.993-6.214l16.051,22.045H538.474z M460.06,349.942l-7.247-7.323
		c-2.023,1.873-4.058,3.353-6.103,4.438c-2.048,1.085-4.55,1.627-7.509,1.627c-2.22,0-4.252-0.431-6.103-1.294
		c-1.849-0.864-3.427-2.035-4.733-3.514c-1.307-1.479-2.331-3.205-3.07-5.178c-0.74-1.973-1.109-4.068-1.109-6.287v-0.148
		c0-2.219,0.369-4.303,1.109-6.25c0.74-1.949,1.775-3.662,3.108-5.142c1.33-1.479,2.921-2.638,4.77-3.476
		c1.849-0.838,3.859-1.258,6.029-1.258c2.614,0,4.969,0.518,7.066,1.554c2.095,1.035,4.153,2.466,6.176,4.29l7.25-8.36
		c-1.183-1.183-2.466-2.268-3.848-3.254c-1.381-0.987-2.884-1.825-4.511-2.515c-1.627-0.69-3.44-1.233-5.437-1.628
		c-1.998-0.394-4.205-0.592-6.621-0.592c-3.995,0-7.645,0.703-10.949,2.109c-3.304,1.406-6.139,3.329-8.508,5.77
		c-2.367,2.441-4.216,5.277-5.548,8.507c-1.33,3.23-1.996,6.695-1.996,10.394v0.147c0,3.699,0.666,7.176,1.996,10.431
		c1.332,3.254,3.181,6.078,5.548,8.47c2.368,2.392,5.178,4.278,8.434,5.658c3.255,1.381,6.782,2.072,10.578,2.072
		c2.517,0,4.786-0.21,6.807-0.629c2.021-0.418,3.883-1.035,5.586-1.848c1.701-0.814,3.266-1.788,4.696-2.923
		C457.35,352.654,458.73,351.372,460.06,349.942z M363.673,336.626h-13.759l6.881-16.792L363.673,336.626z M384.387,358.301
		l-22.192-52.151h-10.504l-22.192,52.151h11.615l4.732-11.614h21.897l4.735,11.614H384.387z M291.032,342.692
		c0,1.924-0.716,3.341-2.146,4.254c-1.43,0.913-3.404,1.368-5.919,1.368h-13.536v-11.392h13.167c2.96,0,5.104,0.506,6.436,1.517
		c1.332,1.01,1.998,2.379,1.998,4.105V342.692z M288.148,321.98c0,1.924-0.74,3.316-2.22,4.18c-1.48,0.863-3.478,1.294-5.991,1.294
		h-10.505v-10.948h11.244c2.417,0,4.266,0.456,5.548,1.368c1.283,0.913,1.925,2.232,1.925,3.958V321.98z M302.276,344.098v-0.148
		c0-3.452-0.863-6.153-2.577-8.1c-1.714-1.948-4.082-3.489-7.064-4.623c0.925-0.494,1.799-1.086,2.6-1.775
		c0.814-0.69,1.516-1.493,2.133-2.404c0.617-0.913,1.097-1.936,1.467-3.07c0.369-1.135,0.555-2.441,0.555-3.922v-0.147
		c0-4.094-1.516-7.348-4.538-9.764c-3.033-2.416-7.2-3.626-12.514-3.626h-24.004v51.782h24.595c2.897,0,5.548-0.296,7.94-0.888
		c2.379-0.592,4.426-1.479,6.128-2.663c1.688-1.185,2.996-2.664,3.908-4.439C301.82,348.536,302.276,346.464,302.276,344.098z"/>
</g>
</svg>
